<svg version="1.1" xmlns="http://www.w3.org/2000/svg" xmlns:xlink="http://www.w3.org/1999/xlink" width="48" height="48"><defs><linearGradient x1="9.82524" y1="9.82524" x2="59.74151" y2="59.74152" gradientUnits="userSpaceOnUse" id="color-1"><stop offset="0" stop-color="#000000" stop-opacity="0.51"></stop><stop offset="1" stop-color="#000000" stop-opacity="0"></stop></linearGradient><filter id="dropshadow-base"><feColorMatrix type="matrix" values="0 0 0 0 0  0 0 0 0 0  0 0 0 0 0  0 0 0 .8 0"></feColorMatrix> <feOffset dx="0" dy="1"></feOffset> <feGaussianBlur stdDeviation="1"></feGaussianBlur> <feComposite in="SourceGraphic"></feComposite></filter><filter id="dropshadow-banner" x="-10%" y="-10%" width="120%" height="130%"><feColorMatrix type="matrix" values="0 0 0 0 0  0 0 0 0 0  0 0 0 0 0  0 0 0 .4 0"></feColorMatrix> <feOffset dx="0" dy="1"></feOffset> <feGaussianBlur stdDeviation="0.5"></feGaussianBlur> <feComposite in="SourceGraphic"></feComposite></filter></defs><g fill="none" fill-rule="nonzero" stroke="none" stroke-width="none" stroke-linecap="butt" stroke-linejoin="miter" stroke-miterlimit="10" stroke-dasharray="" stroke-dashoffset="0" font-family="none" font-weight="none" font-size="none" text-anchor="none" style="mix-blend-mode: normal"><path d="M2,24c0,-12.15026 9.84974,-22 22,-22c12.15026,0 22,9.84974 22,22c0,12.15026 -9.84974,22 -22,22c-12.15026,0 -22,-9.84974 -22,-22z" id="base 1 5" fill="#2da1a8" stroke-width="1"></path><path d="M10.51802,37.48199c0,0 0,0 0,0l0,0c-0.42741,-0.42741 -0.692,-1.01763 -0.69278,-1.66968v-22.67962c0.00208,-1.82579 1.48166,-3.30536 3.30745,-3.30745h21.73463c0.13048,0 0.2486,0.05288 0.3341,0.13839l2.2241,2.2241h0.74923l7.37823,7.37823c0.2931,1.43223 0.44702,2.91517 0.44702,4.43405c0,12.15026 -9.84974,22 -22,22c-1.97602,0 -3.89119,-0.26052 -5.71304,-0.74908zM31.392,34.69944v3.47532h3.47532c0.26095,0 0.47249,-0.21154 0.47249,-0.47249v-6.31028h-0.64036c-1.82579,0.00208 -3.30536,1.48166 -3.30745,3.30745z" fill="url(#color-1)" stroke-width="1"></path><path d="M35.33981,12.1877h2.83495v2.83495h-2.83495v0.94498h1.88997v2.83495h-1.88997v0.94498h2.83495v2.83495h-2.83495v0.94498h1.88997v2.83495h-1.88997v11.33981c0,0.26095 -0.21154,0.47249 -0.47249,0.47249h-22.67961c-1.3041,-0.00156 -2.3609,-1.05836 -2.36246,-2.36246v-22.67961c0.00208,-1.82579 1.48166,-3.30536 3.30744,-3.30744h21.73463c0.26095,0 0.47249,0.21154 0.47249,0.47249z" fill="none" stroke-width="0"></path><g stroke-width="1"><g id="Filled_outline 1"><path d="M10.29813,35.8123c0,-1.0438 0.84617,-1.88997 1.88997,-1.88997h22.67961v-23.6246h-21.73463c-1.5657,0 -2.83495,1.26925 -2.83495,2.83495z" fill="#2d75bb"></path><path d="M15.96804,13.13268h16.06473v8.50486h-16.06473z" fill="#fcec97"></path><path d="M12.1881,33.92233h22.67961v0v3.77994v0h-22.67961c-1.0438,0 -1.88997,-0.84617 -1.88997,-1.88997c0,-1.0438 0.84617,-1.88997 1.88997,-1.88997z" fill="#fcec97"></path><path d="M11.71561,35.33981h2.83495v0.94498h-2.83495z" fill="#d3843d"></path><path d="M18.3305,35.33981h16.53722v0.94498h-16.53722z" fill="#d3843d"></path><path d="M10.29813,35.8123c0,-1.0438 0.84617,-1.88997 1.88997,-1.88997h0.94498v-23.6246c-1.5657,0 -2.83495,1.26925 -2.83495,2.83495z" fill="#d3843d"></path><path d="M10.77063,31.08738h-0.94498c-0.01493,-0.50568 0.1794,-0.99512 0.53712,-1.35285c0.35772,-0.35772 0.84717,-0.55205 1.35285,-0.53712v0.94498c-0.25535,-0.01658 -0.50546,0.07764 -0.6864,0.25858c-0.18094,0.18094 -0.27516,0.43105 -0.25858,0.6864z" fill="#fcec97"></path><path d="M10.77063,28.72492h-0.94498c-0.01493,-0.50568 0.1794,-0.99512 0.53712,-1.35285c0.35772,-0.35772 0.84717,-0.55205 1.35285,-0.53712v0.94498c-0.25535,-0.01658 -0.50546,0.07764 -0.6864,0.25858c-0.18094,0.18094 -0.27516,0.43105 -0.25858,0.6864z" fill="#fcec97"></path><path d="M10.77063,16.44013h-0.94498c-0.01493,-0.50568 0.1794,-0.99512 0.53712,-1.35285c0.35772,-0.35772 0.84717,-0.55205 1.35285,-0.53712v0.94498c-0.25535,-0.01658 -0.50546,0.07764 -0.6864,0.25858c-0.18094,0.18094 -0.27516,0.43105 -0.25858,0.6864z" fill="#fcec97"></path><path d="M22.12697,20.34433l-1.32251,-4.84919h-1.168l-1.32298,4.84919l-0.91191,-0.24853l1.41748,-5.19741c0.0561,-0.20579 0.24312,-0.34848 0.45643,-0.34823h1.88997c0.21313,-0.00004 0.3999,0.1426 0.45595,0.34823l1.41748,5.19741z" fill="#d3843d"></path><path d="M18.80299,17.38511h3.30744v0.94498h-3.30744z" fill="#d3843d"></path><path d="M23.52791,16.91262h2.36246v0.94498h-2.36246z" fill="#2d75bb"></path><path d="M30.61529,20.22006h-3.77994c-0.17609,-0.0001 -0.33751,-0.0981 -0.41883,-0.25429c-0.08132,-0.15618 -0.06904,-0.34463 0.03186,-0.48894l2.78723,-3.98169h-2.87275v-0.94498h3.77994c0.17609,0.0001 0.33751,0.0981 0.41883,0.25429c0.08132,0.15618 0.06904,0.34463 -0.03186,0.48894l-2.78723,3.98169h2.87275z" fill="#d3843d"></path><path d="M18.3305,23.52751h11.33981v1.88997h-11.33981z" fill="#d3843d"></path><g fill="#f9bb4b"><path d="M16.91302,27.30744h1.88997v0.94498h-1.88997z"></path><path d="M19.74797,27.30744h8.50486v0.94498h-8.50486z"></path><path d="M29.19781,27.30744h1.88997v0.94498h-1.88997z"></path><path d="M15.96804,29.19741h16.06473v0.94498h-16.06473z"></path><path d="M15.96804,31.08738h16.06473v0.94498h-16.06473z"></path></g><path d="M34.86772,12.66019h2.83495v1.88997h-2.83495z" fill="#e4544f"></path><path d="M34.86772,16.44013h1.88997v1.88997h-1.88997z" fill="#7fc99d"></path><path d="M34.86772,20.22006h2.83495v1.88997h-2.83495z" fill="#e4544f"></path><path d="M34.86772,24h1.88997v1.88997h-1.88997z" fill="#7fc99d"></path><path d="M18.3305,36.75728l-1.88997,-0.94498l-1.88997,0.94498v-2.83495h3.77994z" fill="#e4544f"></path><path d="M35.34021,10.29773c0,-0.26095 -0.21154,-0.47249 -0.47249,-0.47249h-21.73463c-1.82579,0.00208 -3.30536,1.48166 -3.30744,3.30744v22.67961c0.00156,1.3041 1.05836,2.3609 2.36246,2.36246h22.67961c0.26095,0 0.47249,-0.21154 0.47249,-0.47249v-11.33981h1.88997v-2.83495h-1.88997v-0.94498h2.83495v-2.83495h-2.83495v-0.94498h1.88997v-2.83495h-1.88997v-0.94498h2.83495v-2.83495h-2.83495zM10.77063,29.42752v-0.7026c-0.01658,-0.25535 0.07764,-0.50546 0.25858,-0.6864c0.18094,-0.18094 0.43105,-0.27516 0.6864,-0.25858v-0.94498c-0.32948,-0.00533 -0.65483,0.0739 -0.94498,0.2301v-10.62493c-0.01658,-0.25535 0.07764,-0.50546 0.25858,-0.6864c0.18094,-0.18094 0.43105,-0.27516 0.6864,-0.25858v-0.94498c-0.32948,-0.00533 -0.65483,0.0739 -0.94498,0.2301v-1.64758c0.00142,-1.12222 0.79075,-2.08916 1.88997,-2.31521v22.63237h-0.47249c-0.51288,0.00174 -1.01095,0.17208 -1.41748,0.48478v-2.84724c-0.01658,-0.25535 0.07764,-0.50546 0.25858,-0.6864c0.18094,-0.18094 0.43105,-0.27516 0.6864,-0.25858v-0.94498c-0.32948,-0.00533 -0.65483,0.0739 -0.94498,0.2301zM18.3305,37.22978h-6.1424c-0.78285,0 -1.41748,-0.63463 -1.41748,-1.41748c0,-0.78285 0.63463,-1.41748 1.41748,-1.41748h1.88997v0.94498h-2.36246v0.94498h2.36246v0.47249c-0.0009,0.16419 0.08351,0.31708 0.22294,0.4038c0.13943,0.08672 0.31388,0.09484 0.46076,0.02144l1.67876,-0.84198l1.67876,0.84198c0.14688,0.0734 0.32133,0.06528 0.46076,-0.02144c0.13943,-0.08672 0.22384,-0.23961 0.22294,-0.4038v-0.47249h15.59223v0.94498zM34.39522,34.39482v0.94498h-15.59223v-0.94498zM15.02305,34.39482h2.83495v1.59797l-1.20627,-0.60337c-0.13296,-0.06644 -0.28944,-0.06644 -0.42241,0l-1.20627,0.60337zM36.28519,24.47249v0.94498h-0.94498v-0.94498zM37.23018,20.69256v0.94498h-1.88997v-0.94498zM36.28519,16.91262v0.94498h-0.94498v-0.94498zM34.39522,33.44984h-20.78965v-22.67961h20.78965zM37.23018,13.13268v0.94498h-1.88997v-0.94498z" fill="#000000"></path><path d="M21.16545,14.55016h-1.88997c-0.21313,-0.00004 -0.3999,0.1426 -0.45595,0.34823l-1.41748,5.19741l0.91191,0.24853l0.54904,-2.01423h2.71494l0.54904,2.01423l0.91191,-0.24853l-1.41748,-5.19741c-0.05605,-0.20562 -0.24283,-0.34827 -0.45595,-0.34823zM19.12098,17.38511l0.51549,-1.88997h1.168l0.51549,1.88997z" fill="#000000"></path><path d="M23.52791,16.91262h2.36246v0.94498h-2.36246z" fill="#000000"></path><path d="M30.52977,15.29339c0.1009,-0.14431 0.11317,-0.33276 0.03186,-0.48894c-0.08132,-0.15618 -0.24274,-0.25419 -0.41883,-0.25429h-3.77994v0.94498h2.87275l-2.7877,3.98169c-0.10095,0.14438 -0.11318,0.33293 -0.03175,0.48915c0.08144,0.15622 0.24302,0.25416 0.41919,0.25408h3.77994v-0.94498h-2.87275z" fill="#000000"></path><path d="M15.49554,22.11003h17.00971v-9.44984h-17.00971zM16.44053,13.60518h15.11974v7.55987h-15.11974z" fill="#000000"></path><path d="M17.858,25.88997h12.28479v-2.83495h-12.28479zM18.80299,24h10.39482v0.94498h-10.39482z" fill="#000000"></path><path d="M16.91302,27.30744h1.88997v0.94498h-1.88997z" fill="#000000"></path><path d="M19.74797,27.30744h8.50486v0.94498h-8.50486z" fill="#000000"></path><path d="M29.19781,27.30744h1.88997v0.94498h-1.88997z" fill="#000000"></path><path d="M15.96804,29.19741h16.06473v0.94498h-16.06473z" fill="#000000"></path><path d="M15.96804,31.08738h16.06473v0.94498h-16.06473z" fill="#000000"></path></g></g><path d="M2,24c0,-12.15026 9.84974,-22 22,-22c12.15026,0 22,9.84974 22,22c0,12.15026 -9.84974,22 -22,22c-12.15026,0 -22,-9.84974 -22,-22z" id="base 1 1 1" fill="none" stroke-width="1"></path><g fill="#f9bb4b" stroke-width="1" font-family="Roboto, sans-serif" font-weight="400" font-size="14" text-anchor="start"><g id="Filled_outline 1 1"><g></g></g></g><rect x="2" y="2" width="44" height="22" fill="none" stroke-width="1"></rect><path d="M2,24v-22h44v22z" fill="none" stroke-width="1"></path><path d="M2,24v-22h44v22z" fill="none" stroke-width="1"></path><path d="M2,24v-22h44v22z" fill="none" stroke-width="1"></path><path d="M2,24v-22h44v22z" fill="none" stroke-width="1"></path></g></svg>