<svg version="1.1" xmlns="http://www.w3.org/2000/svg" xmlns:xlink="http://www.w3.org/1999/xlink" width="48" height="48"><defs><linearGradient x1="9.11327" y1="10.99971" x2="68.23367" y2="70.12596" gradientUnits="userSpaceOnUse" id="color-1"><stop offset="0" stop-color="#000000" stop-opacity="0.3"></stop><stop offset="1" stop-color="#000000" stop-opacity="0"></stop></linearGradient><filter id="dropshadow-base"><feColorMatrix type="matrix" values="0 0 0 0 0  0 0 0 0 0  0 0 0 0 0  0 0 0 .8 0"></feColorMatrix> <feOffset dx="0" dy="1"></feOffset> <feGaussianBlur stdDeviation="1"></feGaussianBlur> <feComposite in="SourceGraphic"></feComposite></filter><filter id="dropshadow-banner" x="-10%" y="-10%" width="120%" height="130%"><feColorMatrix type="matrix" values="0 0 0 0 0  0 0 0 0 0  0 0 0 0 0  0 0 0 .4 0"></feColorMatrix> <feOffset dx="0" dy="1"></feOffset> <feGaussianBlur stdDeviation="0.5"></feGaussianBlur> <feComposite in="SourceGraphic"></feComposite></filter></defs><g fill="none" fill-rule="nonzero" stroke="none" stroke-width="none" stroke-linecap="butt" stroke-linejoin="miter" stroke-miterlimit="10" stroke-dasharray="" stroke-dashoffset="0" font-family="none" font-weight="none" font-size="none" text-anchor="none" style="mix-blend-mode: normal"><path d="M2,24c0,-12.15026 9.84974,-22 22,-22c12.15026,0 22,9.84974 22,22c0,12.15026 -9.84974,22 -22,22c-12.15026,0 -22,-9.84974 -22,-22z" id="base 1 5" fill="#5596ab" stroke-width="1"></path><path d="M11.81995,37.6932c-1.02265,-1.02265 -1.65603,-2.43455 -1.65603,-3.99159c0,-0.61881 0.10019,-1.21461 0.28504,-1.7722l-1.04813,-1.04813c-0.17758,-0.17758 -0.28756,-0.42274 -0.28756,-0.69312v-12.25938c0,-0.54068 0.43993,-0.98062 0.98068,-0.98062h2.05065v-4.96777c0,-0.54074 0.43993,-0.98068 0.98068,-0.98068h19.0263c0.11467,0 0.21846,0.04647 0.29359,0.1216l0.2936,0.2936l0.65772,0c0,-0.22929 0.18585,-0.41519 0.41519,-0.41519h2.66457c0.27035,0 0.51553,0.10999 0.69311,0.28758l8.41008,8.41008c0.27588,1.39147 0.42054,2.83015 0.42054,4.30263c0,12.15026 -9.84974,22 -22,22c-1.46859,0 -2.90357,-0.1439 -4.29161,-0.41836z" fill="url(#color-1)" stroke-width="1"></path><path d="M36.47625,25.22028h-2.0507v0.52945c1.80037,0.94514 3.03138,2.83331 3.03138,5.00381c0,1.13457 -0.33531,2.22901 -0.96972,3.16496c-0.12871,0.18982 -0.38685,0.23937 -0.57662,0.11072c-0.00451,-0.00305 -0.00893,-0.00618 -0.01328,-0.00938c-0.17435,0.21793 -0.36576,0.42162 -0.57221,0.60903c0.00341,0.00408 0.00676,0.00825 0.01004,0.0125c0.14022,0.18141 0.10684,0.4422 -0.07457,0.58243c-0.99623,0.77026 -2.18971,1.17737 -3.45128,1.17737c-2.97447,0 -5.419,-2.31144 -5.63229,-5.23238h-5.31874c0.13281,0.26356 0.24563,0.53886 0.3363,0.82396h3.56808c0.61044,0 1.10706,0.49662 1.10706,1.10706v0.79157c0,0.54855 -0.40141,1.00393 -0.92565,1.0909c0.02569,0.0935 0.04058,0.19143 0.04058,0.29296v0.79157c0,0.26174 -0.09178,0.50216 -0.24424,0.69187c0.15246,0.18971 0.24424,0.43019 0.24424,0.69193v0.79157c0,0.61044 -0.49668,1.10706 -1.10712,1.10706h-5.33441c-0.3094,0 -0.59488,-0.12666 -0.79921,-0.34062c-0.60308,0.22027 -1.25393,0.34062 -1.93235,0.34062c-3.11409,0 -5.64763,-2.53354 -5.64763,-5.64763c0,-0.91015 0.21673,-1.77053 0.60081,-2.53277h-0.67078c-0.54074,0 -0.98068,-0.43993 -0.98068,-0.98068v-12.25938c0,-0.54069 0.43993,-0.98062 0.98068,-0.98062h2.05065v-4.96777c0,-0.54074 0.43993,-0.98068 0.98068,-0.98068h19.0263c0.22935,0 0.41519,0.18589 0.41519,0.41519l0.82971,0c0,-0.2293 0.18584,-0.41519 0.41519,-0.41519h2.66457c0.54069,0 0.98068,0.43993 0.98068,0.98068v12.25932c0,0.54074 -0.43993,0.98068 -0.98068,0.98068z" fill="none" stroke-width="0"></path><g id="Capa_1 2" stroke-width="1"><g><g><path d="M37.04169,24.23977c0,0.31228 -0.25315,0.56549 -0.56549,0.56549h-23.35091c-0.31228,0 -0.56549,-0.25315 -0.56549,-0.56549v-12.25938c0,-0.31228 0.25315,-0.56549 0.56549,-0.56549h23.35097c0.31228,0 0.56549,0.25315 0.56549,0.56549v12.25938z" fill="#78c2a4"></path><path d="M36.4762,11.4149h-1.09953c0.31228,0 0.56549,0.25315 0.56549,0.56549v12.25938c0,0.31228 -0.25315,0.56549 -0.56549,0.56549h1.09953c0.31233,0 0.56549,-0.25315 0.56549,-0.56549v-12.25938c0,-0.31233 -0.25315,-0.56549 -0.56549,-0.56549z" fill="#66b394"></path><path d="M23.87753,38.93404h-5.33441c-0.38214,0 -0.69193,-0.30979 -0.69193,-0.69193v-0.79152c0,-0.38214 0.30979,-0.69193 0.69193,-0.69193h5.33441c0.38214,0 0.69193,0.30979 0.69193,0.69193v0.79152c0,0.38214 -0.30979,0.69193 -0.69193,0.69193z" fill="#eab14d"></path><path d="M23.87753,36.75867h-1.10606c0.38214,0 0.69193,0.30979 0.69193,0.69193v0.79152c0,0.38214 -0.30979,0.69193 -0.69193,0.69193h1.10606c0.38214,0 0.69193,-0.30979 0.69193,-0.69193v-0.79152c0,-0.38214 -0.30979,-0.69193 -0.69193,-0.69193z" fill="#e49542"></path><path d="M24.7626,34.5833h-5.33441c-0.38214,0 -0.69193,-0.30979 -0.69193,-0.69193v-0.79152c0,-0.38214 0.30979,-0.69193 0.69193,-0.69193h5.33441c0.38214,0 0.69193,0.30979 0.69193,0.69193v0.79152c0,0.38214 -0.30979,0.69193 -0.69193,0.69193z" fill="#eab14d"></path><path d="M24.7626,32.40793h-1.10606c0.38214,0 0.69193,0.30979 0.69193,0.69193v0.79152c0,0.38214 -0.30979,0.69193 -0.69193,0.69193h1.10606c0.38214,0 0.69193,-0.30979 0.69193,-0.69193v-0.79152c0,-0.38214 -0.30979,-0.69193 -0.69193,-0.69193z" fill="#e49542"></path><path d="M23.87753,36.75867h-5.33441c-0.38214,0 -0.69193,-0.30979 -0.69193,-0.69193v-0.79152c0,-0.38214 0.30979,-0.69193 0.69193,-0.69193h5.33441c0.38214,0 0.69193,0.30979 0.69193,0.69193v0.79152c0,0.38214 -0.30979,0.69193 -0.69193,0.69193z" fill="#f6e266"></path><path d="M23.87753,34.5833h-1.10606c0.38214,0 0.69193,0.30979 0.69193,0.69193v0.79152c0,0.38214 -0.30979,0.69193 -0.69193,0.69193h1.10606c0.38214,0 0.69193,-0.30979 0.69193,-0.69193v-0.79152c0,-0.38214 -0.30979,-0.69193 -0.69193,-0.69193z" fill="#ecbe6b"></path><path d="M35.38093,20.68757v-5.15505c-1.35689,0 -2.45687,-1.09998 -2.45687,-2.45687h-16.24664c0,1.35689 -1.09998,2.45687 -2.45687,2.45687v5.15505c1.35689,0 2.45687,1.09998 2.45687,2.45687h16.24664c0,-1.35684 1.09998,-2.45687 2.45687,-2.45687z" fill="#e0f8c5"></path><path d="M32.92406,13.07566h-1.50332c0,1.07468 0.68999,1.9882 1.65118,2.32174c0.48195,0.16724 0.80569,0.62173 0.80569,1.13186v3.16164c0,0.51052 -0.3234,0.96451 -0.80569,1.13186c-0.96119,0.33348 -1.65118,1.24701 -1.65118,2.32174h1.50332c0,-1.35689 1.09998,-2.45687 2.45687,-2.45687v-5.1551c-1.35689,0 -2.45687,-1.09998 -2.45687,-2.45687z" fill="#ccf49f"></path><path d="M34.01036,30.18816c0,0.31228 -0.25315,0.56549 -0.56549,0.56549h-23.35091c-0.31228,0 -0.56549,-0.25315 -0.56549,-0.56549v-12.25938c0,-0.31228 0.25315,-0.56549 0.56549,-0.56549h23.35091c0.31228,0 0.56549,0.25315 0.56549,0.56549z" fill="#78c2a4"></path><path d="M33.44487,17.36329h-1.09953c0.31228,0 0.56549,0.25315 0.56549,0.56549v12.25938c0,0.31228 -0.25315,0.56549 -0.56549,0.56549h1.09953c0.31233,0 0.56549,-0.25315 0.56549,-0.56549v-12.25938c0,-0.31228 -0.25315,-0.56549 -0.56549,-0.56549z" fill="#66b394"></path><path d="M32.3496,26.63602v-5.15505c-1.35689,0 -2.45687,-1.09998 -2.45687,-2.45687h-16.24664c0,1.35689 -1.09998,2.45687 -2.45687,2.45687v5.15505c1.35689,0 2.45687,1.09998 2.45687,2.45687h16.24664c0,-1.35689 1.09998,-2.45687 2.45687,-2.45687z" fill="#e0f8c5"></path><path d="M29.89273,19.0241h-1.50332c0,1.07468 0.68999,1.9882 1.65118,2.32174c0.48195,0.16724 0.80569,0.62173 0.80569,1.13186v3.16164c0,0.51052 -0.3234,0.96451 -0.80569,1.13186c-0.96119,0.33348 -1.65118,1.24701 -1.65118,2.32174h1.50332c0,-1.35689 1.09998,-2.45687 2.45687,-2.45687v-5.15505c-1.35689,-0.00006 -2.45687,-1.10003 -2.45687,-2.45692z" fill="#ccf49f"></path><path d="M10.57912,33.7016c0,-2.88977 2.34262,-5.23238 5.23238,-5.23238c2.88977,0 5.23238,2.34262 5.23238,5.23238c0,2.88977 -2.34262,5.23238 -5.23238,5.23238c-2.88977,0 -5.23238,-2.34262 -5.23238,-5.23238z" fill="#f6e266"></path><path d="M15.8115,28.46922c-0.21396,0 -0.42449,0.01434 -0.63175,0.0393c2.59161,0.31211 4.60063,2.51732 4.60063,5.19308c0,2.67576 -2.00896,4.88097 -4.60063,5.19308c0.20726,0.02497 0.41779,0.0393 0.63175,0.0393c2.88977,0 5.23244,-2.34261 5.23244,-5.23238c0,-2.88977 -2.34266,-5.23238 -5.23244,-5.23238z" fill="#ecbe6b"></path><path d="M26.57692,30.75364c0,-2.88977 2.34262,-5.23238 5.23238,-5.23238c2.88977,0 5.23238,2.34262 5.23238,5.23238c0,2.88977 -2.34262,5.23238 -5.23238,5.23238c-2.88977,0 -5.23238,-2.34262 -5.23238,-5.23238z" fill="#f6e266"></path><path d="M31.8093,25.52121c-0.21396,0 -0.42449,0.01434 -0.63175,0.0393c2.59161,0.31211 4.60063,2.51732 4.60063,5.19308c0,2.67576 -2.00896,4.88097 -4.60063,5.19308c0.20726,0.02497 0.41779,0.0393 0.63175,0.0393c2.88977,0 5.23244,-2.34261 5.23244,-5.23238c0,-2.88977 -2.34266,-5.23238 -5.23244,-5.23238z" fill="#ecbe6b"></path></g><g fill="#000000"><path d="M35.53095,13.55611v-0.11077c0,-0.2293 -0.18584,-0.41519 -0.41519,-0.41519c-0.22935,0 -0.41519,0.18589 -0.41519,0.41519v0.11077c0,0.2293 0.18584,0.41519 0.41519,0.41519c0.22935,0 0.41519,-0.18589 0.41519,-0.41519z"></path><path d="M34.70057,22.66404v0.11077c0,0.2293 0.18584,0.41519 0.41519,0.41519c0.22935,0 0.41519,-0.18589 0.41519,-0.41519v-0.11077c0,-0.2293 -0.18584,-0.41519 -0.41519,-0.41519c-0.22935,0 -0.41519,0.18589 -0.41519,0.41519z"></path><path d="M14.07059,13.44534v0.11077c0,0.2293 0.18584,0.41519 0.41519,0.41519c0.22935,0 0.41519,-0.18589 0.41519,-0.41519v-0.11077c0,-0.2293 -0.18584,-0.41519 -0.41519,-0.41519c-0.22935,0 -0.41519,0.18589 -0.41519,0.41519z"></path><path d="M36.47625,25.22039c0.54074,0 0.98068,-0.43993 0.98068,-0.98068v-12.25932c0,-0.54074 -0.43999,-0.98068 -0.98068,-0.98068h-2.66457c-0.22935,0 -0.41519,0.18589 -0.41519,0.41519c0,0.2293 0.18584,0.41519 0.41519,0.41519h2.66457c0.08287,0 0.1503,0.06743 0.1503,0.1503v12.25938c0,0.08287 -0.06743,0.1503 -0.1503,0.1503h-2.0507v-3.04887c0.29312,-0.15567 0.61913,-0.23837 0.95543,-0.23837c0.22935,0 0.41519,-0.18589 0.41519,-0.41519v-5.1551c0,-0.2293 -0.18584,-0.41519 -0.41519,-0.41519c-1.12583,0 -2.04174,-0.91591 -2.04174,-2.04168c0,-0.2293 -0.18584,-0.41519 -0.41519,-0.41519h-16.24664c-0.22935,0 -0.41519,0.18589 -0.41519,0.41519c0,1.12577 -0.91591,2.04168 -2.04168,2.04168c-0.22935,0 -0.41519,0.18589 -0.41519,0.41519v1.41557h-0.83038v-4.96771c0,-0.08287 0.06743,-0.1503 0.1503,-0.1503h19.0263c0.22935,0 0.41519,-0.18589 0.41519,-0.41519c0,-0.2293 -0.18584,-0.41519 -0.41519,-0.41519h-19.0263c-0.54074,0 -0.98068,0.43993 -0.98068,0.98068v4.96777h-2.05065c-0.54074,0 -0.98068,0.43993 -0.98068,0.98062v12.25938c0,0.54074 0.43993,0.98068 0.98068,0.98068h0.67078c-0.38408,0.76223 -0.60081,1.62262 -0.60081,2.53277c0,3.11409 2.53354,5.64763 5.64763,5.64763c0.67842,0 1.32927,-0.12035 1.93235,-0.34062c0.20433,0.21396 0.48981,0.34062 0.79921,0.34062h5.33441c0.61044,0 1.10712,-0.49662 1.10712,-1.10706v-0.79157c0,-0.26174 -0.09178,-0.50221 -0.24424,-0.69193c0.15246,-0.18971 0.24424,-0.43014 0.24424,-0.69187v-0.79157c0,-0.10153 -0.01489,-0.19946 -0.04058,-0.29296c0.52425,-0.08697 0.92565,-0.54235 0.92565,-1.0909v-0.79157c0,-0.61044 -0.49662,-1.10706 -1.10706,-1.10706h-3.56808c-0.09068,-0.2851 -0.2035,-0.56039 -0.3363,-0.82396h5.31874c0.2133,2.92094 2.65782,5.23238 5.63229,5.23238c1.26157,0 2.45504,-0.40711 3.45128,-1.17737c0.18141,-0.14022 0.21479,-0.40102 0.07457,-0.58243c-0.14028,-0.18152 -0.40107,-0.21479 -0.58243,-0.07457c-0.84953,0.65677 -1.8673,1.00393 -2.94342,1.00393c-2.65622,0 -4.81725,-2.16098 -4.81725,-4.81719c0,-2.65622 2.16098,-4.81725 4.81725,-4.81725c2.65627,0 4.81725,2.16098 4.81725,4.81725c0,0.96783 -0.28587,1.90118 -0.82667,2.69906c-0.12865,0.18982 -0.07911,0.44802 0.11072,0.57662c0.18977,0.12865 0.44791,0.07911 0.57662,-0.11072c0.63441,-0.93595 0.96972,-2.03039 0.96972,-3.16496c0,-2.1705 -1.23101,-4.05867 -3.03138,-5.00381v-0.52945h2.0507zM14.6358,15.91782c1.25216,-0.18202 2.2449,-1.17482 2.42692,-2.42692h15.47616c0.18202,1.25216 1.17482,2.2449 2.42698,2.42692v4.38446c-0.18462,0.02674 -0.3652,0.07241 -0.54024,0.13413v-2.50763c0,-0.54074 -0.43993,-0.98062 -0.98068,-0.98062h-8.259v-0.8203c0.37655,0.04789 0.66452,0.186 0.67244,0.18988c0.20466,0.1018 0.45333,0.01899 0.55597,-0.18562c0.1028,-0.20499 0.01998,-0.45444 -0.18495,-0.55729c-0.02696,-0.01351 -0.46479,-0.22874 -1.04351,-0.28128v-0.22824c0,-0.2293 -0.18584,-0.41519 -0.41519,-0.41519c-0.22935,0 -0.41519,0.18589 -0.41519,0.41519v0.28631c-0.50481,0.12716 -0.85025,0.46241 -1.0155,0.90528c-0.08503,0.22791 -0.1136,0.46595 -0.08863,0.69126h-8.61557zM24.0952,16.94815c-0.03499,-0.11753 -0.02812,-0.26428 0.02286,-0.40096c0.03122,-0.0837 0.1002,-0.21673 0.23749,-0.30663v0.70759zM10.99426,33.7016c0,-2.65616 2.16098,-4.81719 4.81725,-4.81719c2.65627,0 4.81725,2.16098 4.81725,4.81719c0,2.65622 -2.16098,4.81725 -4.81725,4.81725c-2.65627,0 -4.81725,-2.16103 -4.81725,-4.81725zM24.15426,35.27522v0.79157c0,0.15257 -0.12411,0.27668 -0.27674,0.27668h-3.07578c0.22315,-0.41984 0.39498,-0.8709 0.50681,-1.34499h2.56892c0.15268,0 0.27679,0.12411 0.27679,0.27674zM24.15426,38.24211c0,0.15257 -0.12411,0.27668 -0.27674,0.27668h-5.12122c0.579,-0.35524 1.08935,-0.81183 1.5062,-1.34499h3.61503c0.15262,0 0.27674,0.12411 0.27674,0.27674zM24.7626,32.82317c0.15257,0 0.27668,0.12411 0.27668,0.27668v0.79157c0,0.15257 -0.12411,0.27668 -0.27668,0.27668h-0.88507h-2.43783c0.01268,-0.1539 0.01943,-0.3094 0.01943,-0.46651c0,-0.29877 -0.02353,-0.59212 -0.06842,-0.87843zM19.59011,29.50808h6.71029c-0.06106,0.27004 -0.10269,0.54733 -0.12339,0.83038h-5.83131c-0.22404,-0.30121 -0.4773,-0.57938 -0.75559,-0.83038zM32.76479,25.18728v-3.70631c0,-0.2293 -0.18584,-0.41519 -0.41519,-0.41519c-1.12577,0 -2.04168,-0.91591 -2.04168,-2.04168c0,-0.2293 -0.18584,-0.41519 -0.41519,-0.41519h-16.24658c-0.22935,0 -0.41519,0.18589 -0.41519,0.41519c0,1.12577 -0.91591,2.04168 -2.04174,2.04168c-0.22935,0 -0.41519,0.18589 -0.41519,0.41519v1.7475c0,0.2293 0.18584,0.41519 0.41519,0.41519c0.22935,0 0.41519,-0.18589 0.41519,-0.41519v-1.36221c1.25216,-0.18202 2.24496,-1.17482 2.42698,-2.42698h15.47616c0.18202,1.25216 1.17476,2.24496 2.42692,2.42698v3.24141c-0.04163,-0.00089 -0.08326,-0.00161 -0.12511,-0.00161c-2.38147,0 -4.42337,1.48173 -5.25231,3.57168h-8.16744c-0.7733,-0.39847 -1.64991,-0.62367 -2.5781,-0.62367c-0.64581,0 -1.26649,0.10928 -1.84494,0.30979c-0.28991,-1.10595 -1.22187,-1.94674 -2.36215,-2.11298v-1.36232c0,-0.2293 -0.18584,-0.41519 -0.41519,-0.41519c-0.22935,0 -0.41519,0.18589 -0.41519,0.41519v1.7475c0,0.22935 0.18584,0.41519 0.41519,0.41519c0.9856,0 1.81864,0.70527 2.00282,1.6483c-0.7547,0.39681 -1.40926,0.9592 -1.91474,1.63889h-1.18335c-0.08287,0 -0.1503,-0.06743 -0.1503,-0.1503v-12.25938c0,-0.08287 0.06743,-0.15024 0.1503,-0.15024h23.35091c0.08287,0 0.1503,0.06743 0.1503,0.15024v3.17553v0.00127v4.29001c-0.26843,-0.08968 -0.54584,-0.15965 -0.83038,-0.20831z"></path><path d="M20.26023,26.42172c0.41591,0.27209 0.7077,0.3647 1.06399,0.39327v0.28825c0,0.22935 0.18584,0.41519 0.41519,0.41519c0.22935,0 0.41519,-0.18584 0.41519,-0.41519v-0.32717c0.72298,-0.17659 1.18667,-0.79107 1.28853,-1.39703c0.13209,-0.78543 -0.27823,-1.46816 -1.04528,-1.73931c-0.08005,-0.02829 -0.16165,-0.05768 -0.2433,-0.08813v-1.47542c0.37594,0.04783 0.66364,0.18567 0.67239,0.18988c0.20472,0.10192 0.45339,0.01899 0.55602,-0.18556c0.1028,-0.20499 0.01998,-0.45444 -0.18495,-0.55729c-0.02696,-0.01351 -0.46479,-0.2288 -1.04345,-0.28133v-0.22819c0,-0.2293 -0.18584,-0.41519 -0.41519,-0.41519c-0.22935,0 -0.41519,0.18589 -0.41519,0.41519v0.28626c-0.03172,0.00797 -0.06344,0.01666 -0.09522,0.02624c-0.50852,0.15318 -0.88828,0.58741 -0.99114,1.13336c-0.09428,0.50033 0.06781,0.98416 0.42294,1.26267c0.1715,0.13452 0.3812,0.2578 0.66342,0.3864v1.87156c-0.21014,-0.02652 -0.36487,-0.09339 -0.60944,-0.25338c-0.19198,-0.1255 -0.44918,-0.07174 -0.57473,0.12018c-0.12544,0.19187 -0.07169,0.44918 0.12024,0.57473zM22.62426,25.24137c-0.04213,0.25055 -0.20145,0.51478 -0.46966,0.65439v-1.46036c0.52596,0.20538 0.49302,0.66696 0.46966,0.80597zM21.1732,23.06888c-0.10856,-0.0852 -0.15545,-0.26401 -0.1193,-0.45555c0.02785,-0.14797 0.11304,-0.32025 0.27032,-0.42416v0.98339c-0.05492,-0.03382 -0.1059,-0.06831 -0.15102,-0.10369z"></path><path d="M26.41832,24.47366h1.15013c0.22935,0 0.41519,-0.18589 0.41519,-0.41519c0,-0.2293 -0.18584,-0.41519 -0.41519,-0.41519h-1.15013c-0.22935,0 -0.41519,0.18589 -0.41519,0.41519c0,0.2293 0.18589,0.41519 0.41519,0.41519z"></path><path d="M15.97033,24.47366h1.15019c0.22935,0 0.41519,-0.18589 0.41519,-0.41519c0,-0.2293 -0.18584,-0.41519 -0.41519,-0.41519h-1.15019c-0.22935,0 -0.41519,0.18589 -0.41519,0.41519c0,0.2293 0.18584,0.41519 0.41519,0.41519z"></path><path d="M32.08438,18.97854c-0.22935,0 -0.41519,0.18589 -0.41519,0.41519v0.11077c0,0.2293 0.18584,0.41519 0.41519,0.41519c0.22935,0 0.41519,-0.18589 0.41519,-0.41519v-0.11077c0,-0.2293 -0.18589,-0.41519 -0.41519,-0.41519z"></path><path d="M32.08438,29.13839c0.22935,0 0.41519,-0.18584 0.41519,-0.41519v-0.11077c0,-0.22935 -0.18584,-0.41519 -0.41519,-0.41519c-0.22935,0 -0.41519,0.18584 -0.41519,0.41519v0.11077c0,0.22935 0.18584,0.41519 0.41519,0.41519z"></path><path d="M11.45445,18.97854c-0.22935,0 -0.41519,0.18589 -0.41519,0.41519v0.11077c0,0.2293 0.18584,0.41519 0.41519,0.41519c0.22935,0 0.41519,-0.18589 0.41519,-0.41519v-0.11077c0,-0.2293 -0.18589,-0.41519 -0.41519,-0.41519z"></path><path d="M11.45445,29.13839c0.22935,0 0.41519,-0.18584 0.41519,-0.41519v-0.11077c0,-0.22935 -0.18584,-0.41519 -0.41519,-0.41519c-0.22935,0 -0.41519,0.18584 -0.41519,0.41519v0.11077c0,0.22935 0.18584,0.41519 0.41519,0.41519z"></path><path d="M15.8115,29.79577c-2.15367,0 -3.90588,1.7521 -3.90588,3.90582c0,2.15373 1.75215,3.90588 3.90588,3.90588c2.15373,0 3.90588,-1.75215 3.90588,-3.90588c0,-2.15373 -1.75221,-3.90582 -3.90588,-3.90582zM15.8115,36.7771c-1.69585,0 -3.0755,-1.37965 -3.0755,-3.0755c0,-1.6958 1.37965,-3.07545 3.0755,-3.07545c1.69585,0 3.0755,1.37965 3.0755,3.07545c-0.00006,1.69585 -1.37965,3.0755 -3.0755,3.0755z"></path><path d="M31.8093,26.84776c-2.15367,0 -3.90588,1.75215 -3.90588,3.90588c0,2.15373 1.75215,3.90582 3.90588,3.90582c2.15373,0 3.90582,-1.7521 3.90582,-3.90582c0,-2.15373 -1.75215,-3.90588 -3.90582,-3.90588zM31.8093,33.82909c-1.69585,0 -3.0755,-1.37965 -3.0755,-3.07545c0,-1.69585 1.37965,-3.0755 3.0755,-3.0755c1.6958,0 3.07545,1.37965 3.07545,3.0755c0,1.6958 -1.37965,3.07545 -3.07545,3.07545z"></path><path d="M16.98389,33.28641h-2.34471c-0.22935,0 -0.41519,0.18584 -0.41519,0.41519c0,0.22935 0.18584,0.41519 0.41519,0.41519h2.34466c0.22935,0 0.41519,-0.18584 0.41519,-0.41519c0,-0.22935 -0.18584,-0.41519 -0.41513,-0.41519z"></path><path d="M32.98163,30.33846h-2.34466c-0.22935,0 -0.41519,0.18584 -0.41519,0.41519c0,0.22935 0.18584,0.41519 0.41519,0.41519h2.34466c0.22935,0 0.41519,-0.18584 0.41519,-0.41519c0,-0.22935 -0.18589,-0.41519 -0.41519,-0.41519z"></path></g></g></g><path d="M2,24c0,-12.15026 9.84974,-22 22,-22c12.15026,0 22,9.84974 22,22c0,12.15026 -9.84974,22 -22,22c-12.15026,0 -22,-9.84974 -22,-22z" id="base 1 1 1" fill="none" stroke-width="1"></path><g id="Capa_1 1 1" fill="#000000" stroke-width="1" font-family="Roboto, sans-serif" font-weight="400" font-size="14" text-anchor="start"><g><g></g><g></g></g></g><rect x="2" y="2" width="44" height="22" fill="none" stroke-width="1"></rect><path d="M2,24v-22h44v22z" fill="none" stroke-width="1"></path><path d="M2,24v-22h44v22z" fill="none" stroke-width="1"></path><path d="M2,24v-22h44v22z" fill="none" stroke-width="1"></path><path d="M2,24v-22h44v22z" fill="none" stroke-width="1"></path></g></svg>