<svg height="512" viewBox="0 0 64 64" width="512" xmlns="http://www.w3.org/2000/svg"><g id="Money"><path d="m3 33h52v28h-52z" fill="#5eac24"/><path d="m35 47h-3c-2.21 0-3-1.79-3-4v-6h-18a4 4 0 0 1 -4 4v12a4 4 0 0 1 4 4h36a4 4 0 0 1 4-4v-6z" fill="#7ed63e"/><path d="m61 7v36a4 4 0 0 1 -4 4h-25c-2.21 0-3-1.79-3-4v-36a4 4 0 0 1 4-4h24a4 4 0 0 1 4 4z" fill="#c6c5ca"/><path d="m61 7v36a4 4 0 0 1 -4 4h-4a4 4 0 0 0 4-4v-36a4 4 0 0 0 -4-4h4a4 4 0 0 1 4 4z" fill="#898890"/><path d="m47 31h10v12h-10z" fill="#57a4ff"/><path d="m47 17h10v10h-10z" fill="#ff3051"/><rect fill="#bdfdff" height="6" rx="1" width="24" x="33" y="7"/><path d="m57 8v4a1 1 0 0 1 -1 1h-4a1 1 0 0 0 1-1v-4a1 1 0 0 0 -1-1h4a1 1 0 0 1 1 1z" fill="#46f8ff"/><path d="m33 31h10v12h-10z" fill="#9cdd05"/><path d="m33 17h10v10h-10z" fill="#ffde55"/><path d="m32 47h3a6 6 0 1 1 -6-6v2c0 2.21.79 4 3 4z" fill="#ffcd00"/><circle cx="15" cy="17" fill="#ffcd00" r="12"/><path d="m61 7v36a4 4 0 0 1 -4 4h-4a4 4 0 0 0 4-4v-36a4 4 0 0 0 -4-4h4a4 4 0 0 1 4 4z" fill="#898890"/><path d="m57 8v4a1 1 0 0 1 -1 1h-4a1 1 0 0 0 1-1v-4a1 1 0 0 0 -1-1h4a1 1 0 0 1 1 1z" fill="#46f8ff"/><path d="m53 31h4v12h-4z" fill="#006df0"/><path d="m53 17h4v10h-4z" fill="#cd2a00"/><path d="m39 31h4v12h-4z" fill="#5eac24"/><path d="m39 17h4v10h-4z" fill="#ebbf00"/><path d="m27 17a12.014 12.014 0 0 1 -14.5 11.74 12 12 0 0 0 0-23.48 12.014 12.014 0 0 1 14.5 11.74z" fill="#ddb200"/><path d="m57 2h-24a5.006 5.006 0 0 0 -5 5v25h-25a1 1 0 0 0 -1 1v28a1 1 0 0 0 1 1h52a1 1 0 0 0 1-1v-13h1a5.006 5.006 0 0 0 5-5v-36a5.006 5.006 0 0 0 -5-5zm-25 46h1.9a5 5 0 1 1 -5.9-5.9v.9c0 3.131 1.5 5 4 5zm-4-7.92a7 7 0 1 0 7.92 7.92h14.08v4.1a5.013 5.013 0 0 0 -3.9 3.9h-34.2a5.013 5.013 0 0 0 -3.9-3.9v-10.2a5.013 5.013 0 0 0 3.9-3.9h16.1zm26 19.92h-50v-26h24v2h-17a1 1 0 0 0 -1 1 3 3 0 0 1 -3 3 1 1 0 0 0 -1 1v12a1 1 0 0 0 1 1 3 3 0 0 1 3 3 1 1 0 0 0 1 1h36a1 1 0 0 0 1-1 3 3 0 0 1 3-3 1 1 0 0 0 1-1v-5h2zm6-17a3 3 0 0 1 -3 3h-25c-.5 0-2 0-2-3v-36a3 3 0 0 1 3-3h24a3 3 0 0 1 3 3z"/><path d="m56 6h-22a2 2 0 0 0 -2 2v4a2 2 0 0 0 2 2h22a2 2 0 0 0 2-2v-4a2 2 0 0 0 -2-2zm-22 6v-4h22v4z"/><path d="m43 16h-10a1 1 0 0 0 -1 1v10a1 1 0 0 0 1 1h10a1 1 0 0 0 1-1v-10a1 1 0 0 0 -1-1zm-1 10h-8v-8h8z"/><path d="m57 16h-10a1 1 0 0 0 -1 1v10a1 1 0 0 0 1 1h10a1 1 0 0 0 1-1v-10a1 1 0 0 0 -1-1zm-1 10h-8v-8h8z"/><path d="m57 30h-10a1 1 0 0 0 -1 1v12a1 1 0 0 0 1 1h10a1 1 0 0 0 1-1v-12a1 1 0 0 0 -1-1zm-1 12h-8v-10h8z"/><path d="m37 25h2v-2h2v-2h-2v-2h-2v2h-2v2h2z"/><path d="m49 21h6v2h-6z"/><path d="m43 30h-10a1 1 0 0 0 -1 1v12a1 1 0 0 0 1 1h10a1 1 0 0 0 1-1v-12a1 1 0 0 0 -1-1zm-1 12h-8v-10h8z"/><path d="m36.832 40.555 1.168-1.752 1.168 1.752 1.664-1.11-1.63-2.445 1.63-2.445-1.664-1.11-1.168 1.752-1.168-1.752-1.664 1.11 1.63 2.445-1.63 2.445z"/><path d="m49 36h6v2h-6z"/><path d="m51 33h2v2h-2z"/><path d="m51 39h2v2h-2z"/><path d="m15 4a13 13 0 1 0 13 13 13.015 13.015 0 0 0 -13-13zm0 24a11 11 0 1 1 11-11 11.013 11.013 0 0 1 -11 11z"/><path d="m15 12a2 2 0 0 1 2 2h2a4 4 0 0 0 -3-3.858v-2.142h-2v2.142a3.992 3.992 0 0 0 1 7.858 2 2 0 1 1 -2 2h-2a4 4 0 0 0 3 3.858v2.142h2v-2.142a3.992 3.992 0 0 0 -1-7.858 2 2 0 0 1 0-4z"/></g></svg>