<svg id="Capa_1" enable-background="new 0 0 512.106 512.106" height="512" viewBox="0 0 512.106 512.106" width="512" xmlns="http://www.w3.org/2000/svg"><g><g><path d="m504.553 239.169c0 5.641-4.573 10.215-10.215 10.215h-421.812c-5.641 0-10.215-4.573-10.215-10.215v-221.454c0-5.641 4.573-10.215 10.215-10.215h421.813c5.641 0 10.215 4.573 10.215 10.215v221.454z" fill="#78c2a4"/><path d="m494.338 7.5h-19.862c5.641 0 10.215 4.573 10.215 10.215v221.454c0 5.641-4.573 10.215-10.215 10.215h19.862c5.642 0 10.215-4.573 10.215-10.215v-221.454c0-5.642-4.573-10.215-10.215-10.215z" fill="#66b394"/><path d="m266.755 504.607h-96.361c-6.903 0-12.499-5.596-12.499-12.499v-14.298c0-6.903 5.596-12.499 12.499-12.499h96.361c6.903 0 12.499 5.596 12.499 12.499v14.298c0 6.903-5.596 12.499-12.499 12.499z" fill="#eab14d"/><path d="m266.755 465.311h-19.98c6.903 0 12.499 5.596 12.499 12.499v14.298c0 6.903-5.596 12.499-12.499 12.499h19.98c6.903 0 12.499-5.596 12.499-12.499v-14.298c0-6.903-5.596-12.499-12.499-12.499z" fill="#e49542"/><path d="m282.743 426.015h-96.361c-6.903 0-12.499-5.596-12.499-12.499v-14.298c0-6.903 5.596-12.499 12.499-12.499h96.361c6.903 0 12.499 5.596 12.499 12.499v14.298c0 6.903-5.596 12.499-12.499 12.499z" fill="#eab14d"/><path d="m282.743 386.719h-19.98c6.903 0 12.499 5.596 12.499 12.499v14.298c0 6.903-5.596 12.499-12.499 12.499h19.98c6.903 0 12.499-5.596 12.499-12.499v-14.298c0-6.903-5.596-12.499-12.499-12.499z" fill="#e49542"/><path d="m266.755 465.311h-96.361c-6.903 0-12.499-5.596-12.499-12.499v-14.298c0-6.903 5.596-12.499 12.499-12.499h96.361c6.903 0 12.499 5.596 12.499 12.499v14.298c0 6.903-5.596 12.499-12.499 12.499z" fill="#f6e266"/><path d="m266.755 426.015h-19.98c6.903 0 12.499 5.596 12.499 12.499v14.298c0 6.903-5.596 12.499-12.499 12.499h19.98c6.903 0 12.499-5.596 12.499-12.499v-14.298c0-6.903-5.596-12.499-12.499-12.499z" fill="#ecbe6b"/><path d="m474.553 175.002v-93.121c-24.511 0-44.381-19.87-44.381-44.381h-293.48c0 24.511-19.87 44.381-44.381 44.381v93.121c24.511 0 44.381 19.87 44.381 44.381h293.48c0-24.51 19.87-44.381 44.381-44.381z" fill="#e0f8c5"/><path d="m430.172 37.5h-27.156c0 19.413 12.464 35.915 29.827 41.94 8.706 3.021 14.554 11.231 14.554 20.446v57.112c0 9.222-5.842 17.423-14.554 20.446-17.363 6.024-29.827 22.526-29.827 41.94h27.156c0-24.511 19.87-44.381 44.381-44.381v-93.122c-24.511 0-44.381-19.87-44.381-44.381z" fill="#ccf49f"/><path d="m449.795 346.621c0 5.641-4.573 10.215-10.215 10.215h-421.812c-5.641 0-10.215-4.573-10.215-10.215v-221.454c0-5.641 4.573-10.215 10.215-10.215h421.812c5.641 0 10.215 4.573 10.215 10.215z" fill="#78c2a4"/><path d="m439.58 114.952h-19.862c5.641 0 10.215 4.573 10.215 10.215v221.454c0 5.641-4.573 10.215-10.215 10.215h19.862c5.642 0 10.215-4.573 10.215-10.215v-221.454c0-5.641-4.573-10.215-10.215-10.215z" fill="#66b394"/><path d="m419.795 282.455v-93.121c-24.511 0-44.381-19.87-44.381-44.381h-293.48c0 24.511-19.87 44.381-44.381 44.381v93.121c24.511 0 44.381 19.87 44.381 44.381h293.48c0-24.511 19.87-44.381 44.381-44.381z" fill="#e0f8c5"/><path d="m375.414 144.953h-27.156c0 19.413 12.464 35.915 29.827 41.94 8.706 3.021 14.554 11.231 14.554 20.446v57.112c0 9.222-5.842 17.423-14.554 20.446-17.363 6.024-29.827 22.526-29.827 41.94h27.156c0-24.511 19.87-44.381 44.381-44.381v-93.121c-24.511-.001-44.381-19.871-44.381-44.382z" fill="#ccf49f"/><circle cx="121.05" cy="410.088" fill="#f6e266" r="94.518"/><path d="m121.05 315.57c-3.865 0-7.668.259-11.412.71 46.815 5.638 83.106 45.473 83.106 93.808s-36.29 88.17-83.106 93.808c3.744.451 7.547.71 11.412.71 52.201 0 94.519-42.317 94.519-94.518s-42.318-94.518-94.519-94.518z" fill="#ecbe6b"/><circle cx="410.035" cy="356.836" fill="#f6e266" r="94.518"/><path d="m410.035 262.317c-3.865 0-7.668.259-11.412.71 46.815 5.638 83.106 45.473 83.106 93.808s-36.29 88.17-83.106 93.808c3.744.451 7.547.71 11.412.71 52.201 0 94.519-42.317 94.519-94.518s-42.318-94.518-94.519-94.518z" fill="#ecbe6b"/></g><g><path d="m477.263 46.179v-2.001c0-4.142-3.357-7.5-7.5-7.5s-7.5 3.358-7.5 7.5v2.001c0 4.142 3.357 7.5 7.5 7.5s7.5-3.358 7.5-7.5z"/><path d="m462.263 210.705v2.001c0 4.142 3.357 7.5 7.5 7.5s7.5-3.358 7.5-7.5v-2.001c0-4.142-3.357-7.5-7.5-7.5s-7.5 3.358-7.5 7.5z"/><path d="m89.602 44.178v2.001c0 4.142 3.357 7.5 7.5 7.5s7.5-3.358 7.5-7.5v-2.001c0-4.142-3.357-7.5-7.5-7.5s-7.5 3.358-7.5 7.5z"/><path d="m494.339 256.883c9.768 0 17.715-7.947 17.715-17.715v-221.453c0-9.768-7.948-17.715-17.715-17.715h-48.133c-4.143 0-7.5 3.358-7.5 7.5s3.357 7.5 7.5 7.5h48.133c1.497 0 2.715 1.218 2.715 2.715v221.454c0 1.497-1.218 2.715-2.715 2.715h-37.044v-55.075c5.295-2.812 11.184-4.306 17.259-4.306 4.143 0 7.5-3.358 7.5-7.5v-93.122c0-4.142-3.357-7.5-7.5-7.5-20.337 0-36.882-16.545-36.882-36.881 0-4.142-3.357-7.5-7.5-7.5h-293.48c-4.143 0-7.5 3.358-7.5 7.5 0 20.336-16.545 36.881-36.881 36.881-4.143 0-7.5 3.358-7.5 7.5v25.571h-15v-89.737c0-1.497 1.218-2.715 2.715-2.715h343.692c4.143 0 7.5-3.358 7.5-7.5s-3.357-7.5-7.5-7.5h-343.692c-9.768 0-17.715 7.947-17.715 17.715v89.738h-37.043c-9.768 0-17.715 7.947-17.715 17.714v221.454c0 9.768 7.947 17.715 17.715 17.715h12.117c-6.938 13.769-10.853 29.311-10.853 45.752 0 56.253 45.766 102.019 102.019 102.019 12.255 0 24.012-2.174 34.906-6.153 3.691 3.865 8.848 6.153 14.437 6.153h96.361c11.027 0 19.999-8.971 19.999-19.998v-14.299c0-4.728-1.658-9.072-4.412-12.499 2.754-3.427 4.412-7.77 4.412-12.498v-14.299c0-1.834-.269-3.603-.733-5.292 9.47-1.571 16.721-9.797 16.721-19.706v-14.299c0-11.027-8.971-19.998-19.998-19.998h-64.454c-1.638-5.15-3.676-10.123-6.075-14.884h96.078c3.853 52.764 48.011 94.518 101.742 94.518 22.789 0 44.348-7.354 62.344-21.268 3.277-2.533 3.88-7.244 1.347-10.521-2.534-3.279-7.245-3.88-10.521-1.347-15.346 11.864-33.731 18.135-53.17 18.135-47.982 0-87.019-39.036-87.019-87.018s39.036-87.019 87.019-87.019 87.019 39.036 87.019 87.019c0 17.483-5.164 34.343-14.933 48.756-2.324 3.429-1.429 8.093 2 10.416 3.428 2.324 8.091 1.429 10.416-2 11.46-16.907 17.517-36.677 17.517-57.172 0-39.208-22.237-73.316-54.759-90.389v-9.564h37.044zm-394.527-168.042c22.619-3.288 40.552-21.222 43.84-43.84h279.562c3.288 22.619 21.222 40.552 43.841 43.84v79.201c-3.335.483-6.597 1.308-9.759 2.423v-45.298c0-9.768-7.947-17.714-17.715-17.714h-149.191v-14.818c6.802.865 12.004 3.36 12.147 3.43 3.697 1.839 8.189.343 10.043-3.353 1.857-3.703.361-8.209-3.341-10.067-.487-.244-8.396-4.132-18.85-5.081v-4.123c0-4.142-3.357-7.5-7.5-7.5s-7.5 3.358-7.5 7.5v5.172c-9.119 2.297-15.359 8.353-18.344 16.353-1.536 4.117-2.052 8.417-1.601 12.487h-155.632zm170.875 18.612c-.632-2.123-.508-4.774.413-7.243.564-1.512 1.81-3.915 4.29-5.539v12.782zm-236.656 302.635c0-47.981 39.036-87.018 87.019-87.018s87.019 39.036 87.019 87.018-39.036 87.019-87.019 87.019-87.019-39.037-87.019-87.019zm237.723 28.426v14.299c0 2.756-2.242 4.998-4.999 4.998h-55.561c4.031-7.584 7.135-15.732 9.155-24.296h46.405c2.758 0 5 2.242 5 4.999zm0 53.594c0 2.756-2.242 4.998-4.999 4.998h-92.51c10.459-6.417 19.678-14.665 27.208-24.296h65.302c2.757 0 4.999 2.242 4.999 4.999zm10.989-97.888c2.756 0 4.998 2.242 4.998 4.998v14.299c0 2.756-2.242 4.998-4.998 4.998h-15.988-44.037c.229-2.78.351-5.589.351-8.427 0-5.397-.425-10.696-1.236-15.868zm-93.436-59.884h121.215c-1.103 4.878-1.855 9.887-2.229 15h-105.337c-4.047-5.441-8.622-10.466-13.649-15zm237.988-78.051v-66.951c0-4.142-3.357-7.5-7.5-7.5-20.336 0-36.881-16.545-36.881-36.881 0-4.142-3.357-7.5-7.5-7.5h-293.479c-4.143 0-7.5 3.358-7.5 7.5 0 20.336-16.545 36.881-36.882 36.881-4.143 0-7.5 3.358-7.5 7.5v31.567c0 4.142 3.357 7.5 7.5 7.5s7.5-3.358 7.5-7.5v-24.607c22.619-3.288 40.553-21.222 43.841-43.841h279.562c3.288 22.619 21.221 40.553 43.84 43.841v58.553c-.752-.016-1.504-.029-2.26-.029-43.019 0-79.904 26.766-94.878 64.519h-147.537c-13.969-7.198-29.804-11.266-46.571-11.266-11.666 0-22.878 1.974-33.327 5.596-5.237-19.978-22.072-35.166-42.67-38.169v-24.609c0-4.142-3.357-7.5-7.5-7.5s-7.5 3.358-7.5 7.5v31.567c0 4.143 3.357 7.5 7.5 7.5 17.804 0 32.852 12.74 36.179 29.775-13.633 7.168-25.457 17.327-34.588 29.605h-21.376c-1.497 0-2.715-1.218-2.715-2.715v-221.454c0-1.497 1.218-2.714 2.715-2.714h421.812c1.497 0 2.715 1.218 2.715 2.714v57.363.023 77.495c-4.849-1.62-9.86-2.884-15-3.763z"/><path d="m201.412 278.584c7.513 4.915 12.784 6.588 19.22 7.104v5.207c0 4.143 3.357 7.5 7.5 7.5s7.5-3.357 7.5-7.5v-5.91c13.06-3.19 21.436-14.29 23.276-25.236 2.386-14.188-5.026-26.521-18.882-31.419-1.446-.511-2.92-1.042-4.395-1.592v-26.652c6.791.864 11.988 3.354 12.146 3.43 3.698 1.841 8.19.343 10.044-3.352 1.857-3.703.361-8.209-3.341-10.067-.487-.244-8.396-4.133-18.849-5.082v-4.122c0-4.142-3.357-7.5-7.5-7.5s-7.5 3.358-7.5 7.5v5.171c-.573.144-1.146.301-1.72.474-9.186 2.767-16.046 10.611-17.904 20.473-1.703 9.038 1.225 17.778 7.64 22.809 3.098 2.43 6.886 4.657 11.984 6.98v33.808c-3.796-.479-6.591-1.687-11.009-4.577-3.468-2.267-8.114-1.296-10.382 2.171-2.266 3.466-1.295 8.114 2.172 10.382zm42.704-21.322c-.761 4.526-3.639 9.299-8.484 11.821v-26.38c9.501 3.71 8.906 12.048 8.484 14.559zm-26.212-39.244c-1.961-1.539-2.808-4.769-2.155-8.229.503-2.673 2.042-5.785 4.883-7.662v17.764c-.992-.611-1.913-1.234-2.728-1.873z"/><path d="m312.652 243.394h20.776c4.143 0 7.5-3.358 7.5-7.5s-3.357-7.5-7.5-7.5h-20.776c-4.143 0-7.5 3.358-7.5 7.5s3.358 7.5 7.5 7.5z"/><path d="m123.919 243.394h20.777c4.143 0 7.5-3.358 7.5-7.5s-3.357-7.5-7.5-7.5h-20.777c-4.143 0-7.5 3.358-7.5 7.5s3.357 7.5 7.5 7.5z"/><path d="m415.004 144.13c-4.143 0-7.5 3.358-7.5 7.5v2.001c0 4.142 3.357 7.5 7.5 7.5s7.5-3.358 7.5-7.5v-2.001c0-4.142-3.358-7.5-7.5-7.5z"/><path d="m415.004 327.658c4.143 0 7.5-3.357 7.5-7.5v-2.001c0-4.143-3.357-7.5-7.5-7.5s-7.5 3.357-7.5 7.5v2.001c0 4.143 3.357 7.5 7.5 7.5z"/><path d="m42.344 144.13c-4.143 0-7.5 3.358-7.5 7.5v2.001c0 4.142 3.357 7.5 7.5 7.5s7.5-3.358 7.5-7.5v-2.001c0-4.142-3.358-7.5-7.5-7.5z"/><path d="m42.344 327.658c4.143 0 7.5-3.357 7.5-7.5v-2.001c0-4.143-3.357-7.5-7.5-7.5s-7.5 3.357-7.5 7.5v2.001c0 4.143 3.357 7.5 7.5 7.5z"/><path d="m121.05 339.533c-38.904 0-70.556 31.65-70.556 70.555s31.651 70.556 70.556 70.556 70.556-31.651 70.556-70.556-31.652-70.555-70.556-70.555zm0 126.111c-30.634 0-55.556-24.922-55.556-55.556 0-30.633 24.922-55.555 55.556-55.555s55.556 24.922 55.556 55.555c-.001 30.634-24.922 55.556-55.556 55.556z"/><path d="m410.035 286.28c-38.904 0-70.556 31.651-70.556 70.556s31.651 70.555 70.556 70.555 70.555-31.65 70.555-70.555-31.651-70.556-70.555-70.556zm0 126.111c-30.634 0-55.556-24.922-55.556-55.555 0-30.634 24.922-55.556 55.556-55.556 30.633 0 55.555 24.922 55.555 55.556 0 30.633-24.922 55.555-55.555 55.555z"/><path d="m142.228 402.588h-42.355c-4.143 0-7.5 3.357-7.5 7.5s3.357 7.5 7.5 7.5h42.354c4.143 0 7.5-3.357 7.5-7.5s-3.357-7.5-7.499-7.5z"/><path d="m431.212 349.336h-42.354c-4.143 0-7.5 3.357-7.5 7.5s3.357 7.5 7.5 7.5h42.354c4.143 0 7.5-3.357 7.5-7.5s-3.358-7.5-7.5-7.5z"/></g></g></svg>