<svg version="1.1" xmlns="http://www.w3.org/2000/svg" xmlns:xlink="http://www.w3.org/1999/xlink" width="48" height="48"><defs><linearGradient x1="10.49883" y1="6.92645" x2="74.57186" y2="78.14424" gradientUnits="userSpaceOnUse" id="color-1"><stop offset="0" stop-color="#000000" stop-opacity="0.3"></stop><stop offset="1" stop-color="#000000" stop-opacity="0"></stop></linearGradient><filter id="dropshadow-base"><feColorMatrix type="matrix" values="0 0 0 0 0  0 0 0 0 0  0 0 0 0 0  0 0 0 .8 0"></feColorMatrix> <feOffset dx="0" dy="1"></feOffset> <feGaussianBlur stdDeviation="1"></feGaussianBlur> <feComposite in="SourceGraphic"></feComposite></filter><filter id="dropshadow-banner" x="-10%" y="-10%" width="120%" height="130%"><feColorMatrix type="matrix" values="0 0 0 0 0  0 0 0 0 0  0 0 0 0 0  0 0 0 .4 0"></feColorMatrix> <feOffset dx="0" dy="1"></feOffset> <feGaussianBlur stdDeviation="0.5"></feGaussianBlur> <feComposite in="SourceGraphic"></feComposite></filter></defs><g fill="none" fill-rule="nonzero" stroke="none" stroke-width="none" stroke-linecap="butt" stroke-linejoin="miter" stroke-miterlimit="10" stroke-dasharray="" stroke-dashoffset="0" font-family="none" font-weight="none" font-size="none" text-anchor="none" style="mix-blend-mode: normal"><path d="M2,24c0,-12.15026 9.84974,-22 22,-22c12.15026,0 22,9.84974 22,22c0,12.15026 -9.84974,22 -22,22c-12.15026,0 -22,-9.84974 -22,-22z" id="base 1 5" fill="#409999" stroke-width="1"></path><path d="M14.6963,40.50151c-0.35338,-0.35338 -0.57226,-0.84136 -0.57226,-1.3795l0,-2.46285l-0.90688,-0.90688c-1.57154,-1.57154 -2.48519,-3.65748 -2.57288,-5.87471c-0.04168,-1.06216 -0.06515,-2.13208 -0.06976,-3.18024c-0.00454,-0.9692 0.10391,-1.93525 0.32013,-2.87391c-0.18687,-0.83047 -0.3328,-1.77372 -0.39209,-2.81901c-0.03876,-0.68388 0.2265,-1.34268 0.72783,-1.80747c0.50066,-0.46426 1.17674,-0.67895 1.85463,-0.58878c0.11864,0.01574 0.24224,0.03394 0.36956,0.05429c0.53123,-0.64022 1.12298,-1.22463 1.76796,-1.7461l-0.68383,-0.68383c-0.30241,-0.30241 -0.57244,-0.64375 -0.80314,-1.02016c-0.14432,-0.2355 -0.07036,-0.54349 0.16514,-0.68781c0.00724,-0.00444 0.01455,-0.00866 0.02191,-0.01269c-0.07273,-0.15116 -0.13799,-0.30659 -0.19532,-0.4658l-0.59098,-0.59098c-0.07291,-0.07291 -0.12396,-0.16896 -0.14051,-0.27881c-0.03954,-0.26218 -0.05962,-0.53322 -0.05962,-0.8056c0,-3.00196 2.44227,-5.44423 5.44423,-5.44423c1.5013,0 2.86262,0.61066 3.84856,1.59661l6.08335,6.08335c2.05173,0.57873 3.93322,1.67813 5.45282,3.19773l0.84776,0.84776c0.10361,-0.01609 0.20456,-0.03072 0.30215,-0.04367c0.67814,-0.09037 1.35388,0.12452 1.85463,0.58878c0.02134,0.01979 0.04225,0.03993 0.06274,0.06041l8.79512,8.79512c-1.90201,10.21446 -10.8617,17.94746 -21.62753,17.94746c-1.43878,0 -2.8453,-0.13812 -4.20703,-0.40181z" fill="url(#color-1)" stroke-width="1"></path><path d="M37.49741,21.00461c-0.05929,1.04529 -0.20522,1.98861 -0.39209,2.81902c0.21622,0.93865 0.32467,1.90465 0.32013,2.87411c-0.0046,1.04796 -0.02808,2.11787 -0.06976,3.17983c-0.05329,1.35695 -0.40757,2.64882 -1.0531,3.83957c-0.09064,0.16714 -0.26264,0.26191 -0.44025,0.26191c-0.0805,0 -0.16213,-0.01947 -0.2379,-0.06056c-0.00445,-0.00241 -0.00884,-0.00488 -0.01319,-0.0074c-0.17662,0.28349 -0.36985,0.55556 -0.57834,0.81486c0.00364,0.00312 0.00725,0.0063 0.01082,0.00954c0.20468,0.18561 0.22002,0.50201 0.03441,0.70656c-0.37062,0.40857 -0.77325,0.77698 -1.20216,1.10398v2.57605c0,1.07604 -0.87509,1.95146 -1.9508,1.95146h-3.52678c-0.79939,0 -1.50922,-0.4786 -1.80827,-1.21923l-0.58511,-1.44419c-0.66794,0.01074 -1.33641,0.01747 -2.00502,0.01747c-0.66874,0 -1.33721,-0.00674 -2.00502,-0.01747l-0.58531,1.44466c-0.29886,0.7401 -1.00868,1.2187 -1.80807,1.2187h-3.52678c-1.07571,0 -1.9508,-0.87542 -1.9508,-1.95146v-2.57845c-0.31506,-0.23943 -0.61585,-0.50087 -0.89963,-0.78405c-1.57598,-1.57238 -2.49229,-3.6613 -2.58012,-5.88194c-0.04168,-1.06217 -0.06516,-2.13207 -0.06976,-3.18023c-0.00454,-0.9692 0.10391,-1.93526 0.32013,-2.87391c-0.18688,-0.83047 -0.3328,-1.77373 -0.39209,-2.81902c-0.03875,-0.68388 0.22649,-1.34268 0.72783,-1.80747c0.50067,-0.46426 1.17675,-0.67894 1.85463,-0.58877c0.11865,0.01574 0.24223,0.03395 0.36955,0.05429c0.55029,-0.6632 1.16554,-1.26652 1.83762,-1.802c-0.61645,-0.42517 -1.1482,-0.98167 -1.55664,-1.64807c-0.14433,-0.2355 -0.07036,-0.54349 0.16513,-0.68781c0.00724,-0.00444 0.01454,-0.00866 0.0219,-0.01269c-0.14039,-0.2918 -0.25298,-0.59951 -0.33432,-0.91969c-0.00768,0.00153 -0.01543,0.00288 -0.02325,0.00406c-0.27358,0.04102 -0.52808,-0.14679 -0.56923,-0.41997c-0.03955,-0.26217 -0.05962,-0.53322 -0.05962,-0.8056c0,-3.00196 2.44227,-5.44423 5.44423,-5.44423c3.00236,0 5.44489,2.44227 5.44489,5.44423c0,1.15794 -0.36442,2.23171 -0.98307,3.11514v1.45073c0,0.24637 0.20015,0.44685 0.44618,0.44685h1.42325c0.24603,0 0.44618,-0.20048 0.44618,-0.44685v-2.27493c0,-0.13786 0.05689,-0.26964 0.15726,-0.36415c0.10044,-0.09444 0.23436,-0.14346 0.37302,-0.13512c3.44234,0.20728 6.65399,1.84282 8.85902,4.49991c0.12672,-0.02021 0.24977,-0.03835 0.36788,-0.05402c0.67814,-0.09037 1.35389,0.12452 1.85463,0.58877c0.50127,0.46486 0.76658,1.12359 0.72776,1.80761z" fill="none" stroke-width="0"></path><g id="Capa_1 2" stroke-width="1"><g><g><g><path d="M33.3758,34.33346v4.78856c0,0.80166 -0.6496,1.45126 -1.45059,1.45126h-3.52678c-0.59091,0 -1.12313,-0.35815 -1.34455,-0.90637l-0.31613,-0.77965l-1.84475,-4.5538z" fill="#ffcbbe"></path><path d="M23.107,34.33346l-1.84475,4.5538l-0.31613,0.77965c-0.22142,0.54822 -0.75364,0.90637 -1.34455,0.90637h-3.52678c-0.80099,0 -1.45059,-0.6496 -1.45059,-1.45126v-4.78856z" fill="#ffcbbe"></path><g fill="#eaac9d"><path d="M18.09548,40.57354h-2.02083c-0.80099,0 -1.45059,-0.6496 -1.45059,-1.45126v-4.78856h2.02016v4.78856c0,0.80166 0.6496,1.45126 1.45126,1.45126z"></path><g><path d="M14.62426,34.33346h8.48274l-1.84475,4.5538c-0.70962,-0.01534 -1.41991,-0.03735 -2.1302,-0.06536c-1.67735,-0.06603 -3.22799,-0.62692 -4.50784,-1.5413v-2.94714z"></path><path d="M33.3758,34.33346v2.94721c-1.27986,0.91437 -2.83049,1.47527 -4.50784,1.5413c-0.71029,0.02801 -1.42058,0.05002 -2.1302,0.06536l-1.84475,-4.5538h8.4828z"></path></g><path d="M30.04843,40.57328h-1.65001c-0.59091,0 -1.12313,-0.35815 -1.34455,-0.90637l-0.31613,-0.77965l-1.84475,-4.5538h1.65001l1.84475,4.5538l0.31613,0.77965c0.22149,0.54822 0.75364,0.90637 1.34455,0.90637z"></path></g><g fill="#ffcbbe"><path d="M36.92538,26.69554c-0.0046,1.05376 -0.02821,2.10826 -0.06936,3.16203c-0.1714,4.33231 -3.6557,7.80446 -7.988,7.97433c-3.24506,0.12799 -6.49085,0.12799 -9.73592,0c-4.33231,-0.16994 -7.8166,-3.64202 -7.988,-7.97433c-0.04115,-1.05376 -0.06476,-2.10826 -0.06936,-3.16203c-0.02975,-6.39562 4.95549,-11.65443 11.26734,-12.03466v2.27586c0,0.52268 0.42364,0.94705 0.94632,0.94705h1.42332c0.52268,0 0.94632,-0.42437 0.94632,-0.94705v-2.27586c6.31178,0.38022 11.29702,5.63904 11.26734,12.03466z"></path></g><g fill="#eaac9d"><path d="M21.08644,14.80341c-2.76807,1.91318 -4.71326,6.53961 -4.69879,11.91961c0.00227,1.12459 0.01754,2.24845 0.04342,3.37305c0.08077,3.46602 1.33261,6.41616 3.10254,7.7511c-0.13412,-0.0046 -0.26744,-0.00994 -0.40156,-0.01521c-4.33157,-0.16994 -7.8166,-3.64202 -7.98807,-7.97433c-0.04115,-1.05376 -0.06476,-2.10826 -0.06936,-3.16203c-0.02734,-5.96517 4.30729,-10.94134 10.01183,-11.8922z"></path></g><g><path d="M12.89342,27.64719c0,0 -1.65574,-2.51616 -1.89137,-6.67106c-0.06356,-1.12019 0.90484,-2.01983 2.01709,-1.87203c1.6254,0.21602 4.04872,0.83608 6.57362,2.54804c0,0 -3.36238,-0.30899 -3.36238,3.36238" fill="#eaac9d"></path><path d="M35.10664,27.64719c0,0 1.65574,-2.51616 1.89137,-6.67106c0.06356,-1.12019 -0.90484,-2.01983 -2.01709,-1.87203c-1.6254,0.21602 -4.04872,0.83608 -6.57362,2.54804" fill="#ffcbbe"></path></g><path d="M25.71613,27.11511c-1.14407,-0.03748 -2.28814,-0.03748 -3.43227,0c-1.67355,0.05489 -3.00496,1.41158 -3.04678,3.08553c-0.01054,0.42237 -0.01054,0.84475 0,1.26712c0.04182,1.67395 1.37323,3.03064 3.04678,3.08553c1.14407,0.03748 2.28814,0.03748 3.43227,0c1.67355,-0.05489 3.00496,-1.41158 3.04678,-3.08553c0.01054,-0.42237 0.01054,-0.84475 0,-1.26712c-0.04175,-1.67395 -1.37316,-3.03064 -3.04678,-3.08553z" fill="#ffddce"></path></g><path d="M13.43631,12.37094c0,-2.73066 2.21363,-4.94429 4.94429,-4.94429c2.73066,0 4.94429,2.21363 4.94429,4.94429c0,2.73066 -2.21363,4.94429 -4.94429,4.94429c-2.73066,0 -4.94429,-2.21363 -4.94429,-4.94429z" fill="#ffd064"></path></g><g fill="#000000"><path d="M36.76965,19.197c-0.50074,-0.46426 -1.17648,-0.67914 -1.85463,-0.58877c-0.11811,0.01567 -0.24117,0.03381 -0.36788,0.05402c-2.20504,-2.65709 -5.41668,-4.29262 -8.85902,-4.49991c-0.13866,-0.00834 -0.27258,0.04068 -0.37302,0.13512c-0.10037,0.09451 -0.15726,0.22629 -0.15726,0.36415v2.27493c0,0.24637 -0.20015,0.44685 -0.44618,0.44685h-1.42325c-0.24603,0 -0.44618,-0.20048 -0.44618,-0.44685v-1.45073c0.61865,-0.88343 0.98307,-1.9572 0.98307,-3.11514c0,-3.00196 -2.44253,-5.44423 -5.44489,-5.44423c-3.00196,0 -5.44423,2.44227 -5.44423,5.44423c0,0.27238 0.02007,0.54342 0.05962,0.8056c0.04115,0.27318 0.29565,0.46099 0.56923,0.41997c0.27318,-0.04122 0.46119,-0.29605 0.41997,-0.56923c-0.03208,-0.21289 -0.04842,-0.43371 -0.04842,-0.65634c0,-2.45034 1.99348,-4.44382 4.44382,-4.44382c2.45067,0 4.44448,1.99348 4.44448,4.44382c0,2.45074 -1.99382,4.44448 -4.44448,4.44448c-1.5587,0 -2.97628,-0.79459 -3.79188,-2.12547c-0.14439,-0.2355 -0.45225,-0.30953 -0.68781,-0.16513c-0.2355,0.14433 -0.30946,0.45232 -0.16513,0.68781c0.40843,0.66641 0.94018,1.2229 1.55664,1.64807c-0.67207,0.53549 -1.28733,1.1388 -1.83762,1.802c-0.12732,-0.02034 -0.2509,-0.03855 -0.36955,-0.05429c-0.67788,-0.09017 -1.35395,0.12452 -1.85463,0.58877c-0.50134,0.46479 -0.76658,1.12359 -0.72783,1.80747c0.05929,1.04529 0.20522,1.98855 0.39209,2.81902c-0.21622,0.93865 -0.32467,1.90471 -0.32013,2.87391c0.0046,1.04816 0.02808,2.11807 0.06976,3.18023c0.08784,2.22064 1.00414,4.30956 2.58012,5.88194c0.28378,0.28318 0.58457,0.54462 0.89963,0.78405v2.57845c0,1.07604 0.87509,1.95146 1.9508,1.95146h3.52678c0.79939,0 1.50922,-0.4786 1.80807,-1.2187l0.58531,-1.44466c0.66781,0.01074 1.33628,0.01747 2.00502,0.01747c0.66861,0 1.33708,-0.00674 2.00502,-0.01747l0.58511,1.44419c0.29906,0.74064 1.00888,1.21923 1.80827,1.21923h3.52678c1.07571,0 1.9508,-0.87542 1.9508,-1.95146v-2.57605c0.42891,-0.327 0.83154,-0.69542 1.20216,-1.10398c0.18561,-0.20455 0.17027,-0.52095 -0.03441,-0.70656c-0.20462,-0.18568 -0.52101,-0.17027 -0.70656,0.03441c-1.42358,1.56918 -3.37285,2.47908 -5.48898,2.56205c-3.21692,0.12699 -6.47932,0.12699 -9.6967,0c-1.97007,-0.07736 -3.82416,-0.8873 -5.22067,-2.2806c-1.3969,-1.39377 -2.20917,-3.24526 -2.287,-5.21313c-0.04122,-1.05043 -0.06443,-2.1086 -0.06896,-3.14542c-0.00093,-0.19668 0.0042,-0.39316 0.01327,-0.58931c0.44111,1.12866 0.85288,1.76632 0.8873,1.81861c0.09604,0.14593 0.2553,0.22509 0.4179,0.22509c0.09411,0 0.18941,-0.02654 0.27398,-0.08203c0.23076,-0.15133 0.29525,-0.46126 0.14433,-0.69222c-0.01581,-0.02421 -1.58592,-2.46968 -1.81034,-6.42503c-0.02181,-0.38509 0.12725,-0.75584 0.40917,-1.01722c0.28138,-0.26084 0.66134,-0.38142 1.04263,-0.33067c1.54423,0.20522 3.901,0.79966 6.35887,2.46621c0.22856,0.15506 0.53962,0.09531 0.69475,-0.13332c0.155,-0.22863 0.09537,-0.53969 -0.13332,-0.69475c-1.91858,-1.30093 -3.78221,-1.98881 -5.29116,-2.35029c0.50574,-0.55409 1.06457,-1.05617 1.66802,-1.50188c0.66094,0.27965 1.3821,0.42958 2.13014,0.42958c1.31347,0 2.51983,-0.46752 3.46135,-1.24484v0.36582c0,0.79799 0.64893,1.44726 1.44659,1.44726h1.42325c0.79766,0 1.44659,-0.64927 1.44659,-1.44726v-1.73124c2.78314,0.29859 5.36853,1.61306 7.25917,3.68264c-1.50888,0.36148 -3.37238,1.04943 -5.29083,2.35023c-0.22869,0.15506 -0.28832,0.46606 -0.13332,0.69475c0.15513,0.22863 0.46619,0.28838 0.69475,0.13332c2.45787,-1.66655 4.81457,-2.26099 6.35887,-2.46621c0.38129,-0.05069 0.76138,0.0699 1.04263,0.33067c0.28192,0.26131 0.43098,0.63213 0.40917,1.01715c-0.22436,3.95542 -1.79447,6.40088 -1.81034,6.42509c-0.15126,0.23069 -0.08717,0.54042 0.14333,0.69208c0.08477,0.05576 0.18014,0.08243 0.27451,0.08243c0.1626,0 0.3222,-0.07923 0.4183,-0.22529c0.03441,-0.05222 0.44612,-0.68988 0.8873,-1.81854c0.00907,0.19621 0.01421,0.39269 0.01327,0.58951c-0.00454,1.03656 -0.02774,2.09479 -0.06896,3.14522c-0.04722,1.20249 -0.36108,2.34716 -0.93298,3.40199c-0.13165,0.2429 -0.04148,0.54649 0.20142,0.67814c0.07576,0.04108 0.1574,0.06056 0.2379,0.06056c0.17761,0 0.34961,-0.09477 0.44025,-0.26191c0.64553,-1.19075 0.99981,-2.48262 1.0531,-3.83957c0.04168,-1.06197 0.06516,-2.13187 0.06976,-3.17983c0.00454,-0.96946 -0.10391,-1.93546 -0.32013,-2.87411c0.18688,-0.83041 0.3328,-1.77373 0.39209,-2.81902c0.03882,-0.68401 -0.22649,-1.34275 -0.72776,-1.80761zM28.88763,38.33156c1.42518,-0.05589 2.78314,-0.44458 3.98796,-1.12539v1.91585c0,0.52441 -0.42637,0.95106 -0.95039,0.95106h-3.52678c-0.38943,0 -0.73503,-0.23296 -0.88089,-0.59398l-0.44198,-1.09091c0.60518,-0.01494 1.20963,-0.03281 1.81207,-0.05662zM20.9245,38.38818l-0.44218,1.09145c-0.14566,0.36048 -0.49127,0.59344 -0.88069,0.59344h-3.52678c-0.52401,0 -0.95039,-0.42664 -0.95039,-0.95106v-1.92045c1.20983,0.68288 2.57212,1.07437 3.98783,1.13c0.60265,0.02381 1.20709,0.04168 1.81221,0.05662z"></path><path d="M34.0388,24.6545c0.08477,0.05576 0.18014,0.08243 0.27451,0.08243c0.1626,0 0.3222,-0.07923 0.4183,-0.22529c0.02461,-0.03742 0.60365,-0.93258 0.68561,-2.37737c0.01807,-0.32006 -0.10618,-0.62846 -0.34087,-0.84615c-0.23463,-0.21749 -0.55129,-0.3182 -0.86869,-0.27591c-0.5637,0.07496 -1.42278,0.29119 -2.31435,0.8957c-0.22869,0.15506 -0.28832,0.46606 -0.13332,0.69475c0.15513,0.22863 0.46619,0.28838 0.69475,0.13332c0.72997,-0.49494 1.42785,-0.67127 1.8847,-0.73203c0.02181,-0.00267 0.04088,0.00307 0.05676,0.01781c0.01607,0.01487 0.02361,0.03368 0.02228,0.05596c-0.06543,1.15407 -0.51408,1.8707 -0.52381,1.8861c-0.15026,0.23056 -0.08597,0.53929 0.14413,0.69068z"></path><path d="M13.6606,22.00388c0.45692,0.06076 1.15474,0.23703 1.88477,0.73203c0.22856,0.15506 0.53962,0.09531 0.69475,-0.13332c0.155,-0.22863 0.09537,-0.53969 -0.13332,-0.69475c-0.89156,-0.60451 -1.75065,-0.82074 -2.31441,-0.8957c-0.31773,-0.04228 -0.63413,0.05836 -0.86862,0.27591c-0.23476,0.21769 -0.35901,0.52608 -0.34087,0.84621c0.08197,1.44472 0.661,2.33989 0.68561,2.37731c0.09611,0.14606 0.25564,0.22529 0.4183,0.22529c0.09437,0 0.18981,-0.02668 0.27451,-0.08243c0.23076,-0.15186 0.29472,-0.46199 0.14293,-0.69282c-0.00454,-0.00694 -0.45679,-0.72376 -0.52255,-1.88404c-0.00133,-0.02228 0.0062,-0.04115 0.02228,-0.05602c0.01574,-0.01454 0.03501,-0.02048 0.05662,-0.01767z"></path><path d="M25.7326,26.6151c-1.14967,-0.03768 -2.31541,-0.03768 -3.46508,0c-1.93119,0.06336 -3.48189,1.63273 -3.53044,3.57299c-0.01067,0.42871 -0.01067,0.86349 0,1.2922c0.04855,1.94019 1.59925,3.50964 3.53044,3.57299c0.57484,0.01887 1.15367,0.02828 1.73258,0.02828c0.5789,0 1.15767,-0.0094 1.73258,-0.02828c1.93119,-0.06336 3.48189,-1.63273 3.53044,-3.57299c0.01067,-0.42871 0.01067,-0.86342 0,-1.2922c-0.04862,-1.94019 -1.59932,-3.50964 -3.53051,-3.57299zM28.26284,31.45528c-0.03521,1.41091 -1.16107,2.55218 -2.56311,2.59813c-1.12779,0.03702 -2.27166,0.03702 -3.39946,0c-1.40197,-0.04595 -2.52783,-1.18715 -2.56311,-2.59813c-0.01027,-0.4121 -0.01027,-0.83001 0,-1.24217c0.03521,-1.41091 1.16107,-2.55218 2.56311,-2.59813c0.5639,-0.01847 1.13186,-0.02774 1.6997,-0.02774c0.56783,0 1.1358,0.00927 1.6997,0.02774c1.40197,0.04595 2.52783,1.18715 2.56311,2.59813c0.01034,0.4121 0.01034,0.83007 0.00007,1.24217z"></path><path d="M22.74331,29.85356c-0.27631,0 -0.5002,0.22396 -0.5002,0.5002v1.0633c0,0.27625 0.22389,0.5002 0.5002,0.5002c0.27631,0 0.5002,-0.22396 0.5002,-0.5002v-1.0633c0,-0.27625 -0.22389,-0.5002 -0.5002,-0.5002z"></path><path d="M25.25674,29.85356c-0.27631,0 -0.5002,0.22396 -0.5002,0.5002v1.0633c0,0.27625 0.22389,0.5002 0.5002,0.5002c0.27631,0 0.5002,-0.22396 0.5002,-0.5002v-1.0633c0,-0.27625 -0.22396,-0.5002 -0.5002,-0.5002z"></path><path d="M17.07113,30.09559c0.46826,0 0.84915,-0.63239 0.84915,-1.40971c0,-0.77732 -0.38096,-1.40964 -0.84915,-1.40964c-0.46819,0 -0.84908,0.63233 -0.84908,1.40964c0,0.77732 0.38089,1.40971 0.84908,1.40971z"></path><path d="M30.92893,27.27624c-0.46826,0 -0.84915,0.63233 -0.84915,1.40964c0,0.77732 0.38096,1.40971 0.84915,1.40971c0.46819,0 0.84908,-0.63239 0.84908,-1.40971c0,-0.77732 -0.38089,-1.40964 -0.84908,-1.40964z"></path><path d="M18.33571,14.58792c-0.67628,0.0036 -0.94325,-0.02101 -1.51549,-0.32933c-0.24323,-0.13112 -0.54656,-0.04015 -0.67761,0.20308c-0.13105,0.24323 -0.04015,0.54656 0.20308,0.67761c0.58337,0.31433 0.9852,0.41284 1.49261,0.43991v0.30839c0,0.27625 0.22389,0.5002 0.5002,0.5002c0.27631,0 0.5002,-0.22396 0.5002,-0.5002v-0.34421c1.06664,-0.19168 1.71624,-0.96826 1.82328,-1.73391c0.12458,-0.89136 -0.44632,-1.65694 -1.45446,-1.9504c-0.63699,-0.18548 -1.34315,-0.41057 -1.75092,-0.67394c-0.19001,-0.12272 -0.18854,-0.3198 -0.1708,-0.42631c0.03735,-0.22376 0.22109,-0.4986 0.62519,-0.59884c0.16313,-0.04048 0.3154,-0.05982 0.45585,-0.06483c0.0038,-0.0002 0.00767,-0.00027 0.01147,-0.0006c0.61712,-0.01847 0.99854,0.24597 1.02495,0.26484c0.21969,0.1636 0.53082,0.11992 0.69695,-0.09871c0.16707,-0.21996 0.12418,-0.53375 -0.09577,-0.70089c-0.02621,-0.01987 -0.45959,-0.34107 -1.16581,-0.43825v-0.26738c0,-0.27625 -0.22389,-0.5002 -0.5002,-0.5002c-0.27631,0 -0.5002,0.22396 -0.5002,0.5002v0.29812c-0.05536,0.01074 -0.11118,0.02248 -0.16814,0.03661c-0.72043,0.17874 -1.25858,0.73037 -1.37116,1.40531c-0.09597,0.57577 0.13959,1.12419 0.61478,1.43112c0.41584,0.26864 0.99941,0.4988 2.01402,0.79419c0.52662,0.15326 0.79753,0.46359 0.74337,0.85135c-0.0825,0.59144 -0.74964,0.91391 -1.33541,0.91704z"></path></g></g></g><path d="M2,24c0,-12.15026 9.84974,-22 22,-22c12.15026,0 22,9.84974 22,22c0,12.15026 -9.84974,22 -22,22c-12.15026,0 -22,-9.84974 -22,-22z" id="base 1 1 1" fill="none" stroke-width="1"></path><g id="Capa_1 1 1" stroke-width="1" font-family="Roboto, sans-serif" font-weight="400" font-size="14" text-anchor="start"><g><g><g><g fill="#eaac9d"><g></g></g><g fill="#000000"></g><g fill="#000000"></g><g fill="#000000"></g></g></g><g fill="#000000"></g></g></g><rect x="2" y="2" width="44" height="22" fill="none" stroke-width="1"></rect><path d="M2,24v-22h44v22z" fill="none" stroke-width="1"></path><path d="M2,24v-22h44v22z" fill="none" stroke-width="1"></path><path d="M2,24v-22h44v22z" fill="none" stroke-width="1"></path><path d="M2,24v-22h44v22z" fill="none" stroke-width="1"></path></g></svg>