<svg version="1.1" xmlns="http://www.w3.org/2000/svg" xmlns:xlink="http://www.w3.org/1999/xlink" width="48" height="48"><defs><linearGradient x1="10.05056" y1="4.64903" x2="82.11201" y2="84.55184" gradientUnits="userSpaceOnUse" id="color-1"><stop offset="0" stop-color="#000000" stop-opacity="0.87"></stop><stop offset="1" stop-color="#000000" stop-opacity="0"></stop></linearGradient><filter id="dropshadow-base"><feColorMatrix type="matrix" values="0 0 0 0 0  0 0 0 0 0  0 0 0 0 0  0 0 0 .8 0"></feColorMatrix> <feOffset dx="0" dy="1"></feOffset> <feGaussianBlur stdDeviation="1"></feGaussianBlur> <feComposite in="SourceGraphic"></feComposite></filter><filter id="dropshadow-banner" x="-10%" y="-10%" width="120%" height="130%"><feColorMatrix type="matrix" values="0 0 0 0 0  0 0 0 0 0  0 0 0 0 0  0 0 0 .4 0"></feColorMatrix> <feOffset dx="0" dy="1"></feOffset> <feGaussianBlur stdDeviation="0.5"></feGaussianBlur> <feComposite in="SourceGraphic"></feComposite></filter></defs><g fill="none" fill-rule="nonzero" stroke="none" stroke-width="none" stroke-linecap="butt" stroke-linejoin="miter" stroke-miterlimit="10" stroke-dasharray="" stroke-dashoffset="0" font-family="none" font-weight="none" font-size="none" text-anchor="none" style="mix-blend-mode: normal"><path d="M2,24c0,-12.15026 9.84974,-22 22,-22c12.15026,0 22,9.84974 22,22c0,12.15026 -9.84974,22 -22,22c-12.15026,0 -22,-9.84974 -22,-22z" id="base 1 5" fill="#ff0000" stroke-width="1"></path><path d="M14.65728,41.49763c-0.38784,-0.38784 -0.62805,-0.92339 -0.62805,-1.514l0,-2.70298l-0.9953,-0.9953c-1.72477,-1.72477 -2.7275,-4.01408 -2.82374,-6.44749c-0.04574,-1.16572 -0.0715,-2.33995 -0.07656,-3.49031c-0.00498,-1.06369 0.11404,-2.12394 0.35134,-3.15411c-0.20509,-0.91144 -0.36525,-1.94666 -0.43032,-3.09386c-0.04254,-0.75056 0.24858,-1.47359 0.79879,-1.9837c0.54948,-0.50953 1.29147,-0.74514 2.03546,-0.64619c0.13021,0.01728 0.26586,0.03725 0.40559,0.05959c0.58302,-0.70264 1.23247,-1.34403 1.94034,-1.91634l-0.7505,-0.7505c-0.3319,-0.3319 -0.62826,-0.70652 -0.88144,-1.11962c-0.15839,-0.25846 -0.07722,-0.59647 0.18124,-0.75487c0.00794,-0.00487 0.01596,-0.0095 0.02404,-0.01392c-0.07982,-0.1659 -0.15145,-0.33648 -0.21436,-0.51122l-0.6486,-0.6486c-0.08002,-0.08002 -0.13605,-0.18544 -0.15421,-0.306c-0.0434,-0.28774 -0.06543,-0.58521 -0.06543,-0.88414c0,-3.29464 2.68039,-5.97503 5.97503,-5.97503c1.64767,0 3.14172,0.6702 4.22379,1.75227l6.67647,6.67647c2.25177,0.63516 4.31671,1.84175 5.98447,3.5095l0.93042,0.93042c0.11371,-0.01766 0.22451,-0.03372 0.33161,-0.04793c0.74426,-0.09918 1.48588,0.13666 2.03546,0.64619c0.02342,0.02172 0.04637,0.04383 0.06885,0.0663l7.01627,7.01627c-0.62239,11.59292 -10.21976,20.80148 -21.96791,20.80148c-1.91539,0 -3.77362,-0.24478 -5.5451,-0.70476z" fill="url(#color-1)" stroke-width="1"></path><path d="M39.68148,20.0998c-0.06507,1.14721 -0.22523,2.1825 -0.43032,3.09387c0.2373,1.03017 0.35632,2.09035 0.35134,3.15433c-0.00505,1.15014 -0.03082,2.32436 -0.07656,3.48986c-0.05848,1.48926 -0.4473,2.90707 -1.15577,4.21392c-0.09947,0.18343 -0.28825,0.28744 -0.48317,0.28744c-0.08835,0 -0.17794,-0.02137 -0.26109,-0.06646c-0.00488,-0.00265 -0.00971,-0.00535 -0.01448,-0.00813c-0.19384,0.31113 -0.40592,0.60973 -0.63472,0.89431c0.004,0.00342 0.00795,0.00692 0.01188,0.01047c0.22464,0.20371 0.24148,0.55095 0.03777,0.77544c-0.40675,0.4484 -0.84864,0.85274 -1.31937,1.21162v2.82722c0,1.18095 -0.96041,2.14173 -2.141,2.14173h-3.87063c-0.87733,0 -1.65636,-0.52526 -1.98458,-1.33811l-0.64215,-1.585c-0.73306,0.01178 -1.46671,0.01918 -2.20051,0.01918c-0.73394,0 -1.46759,-0.00739 -2.20051,-0.01918l-0.64237,1.58551c-0.32799,0.81226 -1.10702,1.33752 -1.98436,1.33752h-3.87063c-1.18059,0 -2.141,-0.96078 -2.141,-2.14173v-2.82985c-0.34578,-0.26278 -0.6759,-0.54971 -0.98735,-0.8605c-1.72963,-1.72568 -2.73528,-4.01827 -2.83168,-6.45542c-0.04575,-1.16573 -0.07151,-2.33995 -0.07656,-3.4903c-0.00498,-1.06369 0.11404,-2.12394 0.35134,-3.15411c-0.2051,-0.91144 -0.36525,-1.94666 -0.43032,-3.09387c-0.04253,-0.75056 0.24858,-1.47359 0.79879,-1.9837c0.54949,-0.50952 1.29148,-0.74514 2.03545,-0.64618c0.13022,0.01727 0.26585,0.03726 0.40558,0.05958c0.60394,-0.72787 1.27918,-1.39 2.01678,-1.9777c-0.67656,-0.46663 -1.26015,-1.07738 -1.70841,-1.80876c-0.1584,-0.25846 -0.07722,-0.59648 0.18123,-0.75488c0.00794,-0.00487 0.01596,-0.00951 0.02404,-0.01393c-0.15408,-0.32025 -0.27764,-0.65796 -0.36692,-1.00935c-0.00843,0.00167 -0.01694,0.00316 -0.02552,0.00446c-0.30025,0.04502 -0.57957,-0.16111 -0.62473,-0.46092c-0.04341,-0.28774 -0.06544,-0.58521 -0.06544,-0.88414c0,-3.29465 2.68038,-5.97503 5.97503,-5.97503c3.29509,0 5.97576,2.68038 5.97576,5.97503c0,1.27084 -0.39995,2.4493 -1.07892,3.41886v1.59217c0,0.27039 0.21966,0.49042 0.48968,0.49042h1.56201c0.27002,0 0.48968,-0.22003 0.48968,-0.49042v-2.49673c0,-0.1513 0.06244,-0.29593 0.1726,-0.39965c0.11023,-0.10365 0.25721,-0.15745 0.40939,-0.1483c3.77797,0.22749 7.30274,2.02249 9.72277,4.93864c0.13907,-0.02218 0.27412,-0.04209 0.40375,-0.05929c0.74426,-0.09918 1.48589,0.13666 2.03545,0.64618c0.55015,0.51018 0.84132,1.23314 0.79872,1.98385z" fill="none" stroke-width="0"></path><g id="Capa_1 2" stroke-width="1"><g><g><g><path d="M35.15801,34.72819v5.25544c0,0.87982 -0.71293,1.59276 -1.59202,1.59276h-3.87063c-0.64852,0 -1.23263,-0.39307 -1.47564,-0.99474l-0.34695,-0.85567l-2.02462,-4.99779z" fill="#ffcbbe"></path><path d="M23.88801,34.72819l-2.02462,4.99779l-0.34695,0.85567c-0.24301,0.60168 -0.82712,0.99474 -1.47564,0.99474h-3.87063c-0.87909,0 -1.59202,-0.71293 -1.59202,-1.59276v-5.25544z" fill="#ffcbbe"></path><g fill="#eaac9d"><path d="M18.38788,41.57668h-2.21785c-0.87909,0 -1.59202,-0.71293 -1.59202,-1.59276v-5.25544h2.21712v5.25544c0,0.87982 0.71293,1.59276 1.59276,1.59276z"></path><g><path d="M14.57822,34.72819h9.30979l-2.02462,4.99779c-0.77881,-0.01684 -1.55835,-0.04099 -2.3379,-0.07173c-1.84089,-0.07246 -3.54271,-0.68805 -4.94735,-1.69157v-3.23448z"></path><path d="M35.15801,34.72819v3.23455c-1.40464,1.00352 -3.10646,1.61911 -4.94735,1.69157c-0.77954,0.03074 -1.55909,0.0549 -2.3379,0.07173l-2.02462,-4.99779h9.30987z"></path></g><path d="M31.50624,41.57639h-1.81088c-0.64852,0 -1.23263,-0.39307 -1.47564,-0.99474l-0.34695,-0.85567l-2.02462,-4.99779h1.81088l2.02462,4.99779l0.34695,0.85567c0.24309,0.60168 0.82712,0.99474 1.47564,0.99474z"></path></g><g fill="#ffcbbe"><path d="M39.05368,26.34558c-0.00505,1.15651 -0.03096,2.31382 -0.07612,3.47032c-0.18812,4.7547 -4.01212,8.56538 -8.76682,8.75182c-3.56145,0.14046 -7.12371,0.14046 -10.68516,0c-4.7547,-0.1865 -8.57871,-3.99712 -8.76682,-8.75182c-0.04516,-1.15651 -0.07107,-2.31382 -0.07612,-3.47032c-0.03265,-7.01918 5.43865,-12.79073 12.36589,-13.20802v2.49776c0,0.57364 0.46494,1.03939 1.03859,1.03939h1.56209c0.57364,0 1.03859,-0.46575 1.03859,-1.03939v-2.49776c6.92717,0.41729 12.39847,6.18884 12.36589,13.20802z"></path></g><g fill="#eaac9d"><path d="M21.67045,13.29398c-3.03795,2.09972 -5.1728,7.17721 -5.15691,13.08176c0.00249,1.23424 0.01925,2.46767 0.04765,3.70191c0.08864,3.80395 1.46254,7.04173 3.40503,8.50683c-0.1472,-0.00505 -0.29352,-0.01091 -0.44072,-0.01669c-4.75389,-0.1865 -8.57871,-3.99712 -8.76689,-8.75182c-0.04516,-1.15651 -0.07107,-2.31382 -0.07612,-3.47032c-0.03001,-6.54677 4.72725,-12.00811 10.98797,-13.05167z"></path></g><g><path d="M12.67863,27.39002c0,0 -1.81718,-2.76149 -2.07578,-7.32148c-0.06976,-1.22941 0.99306,-2.21676 2.21376,-2.05455c1.78387,0.23708 4.44347,0.91759 7.21454,2.79647c0,0 -3.6902,-0.33912 -3.6902,3.6902" fill="#eaac9d"></path><path d="M37.05761,27.39002c0,0 1.81718,-2.76149 2.07578,-7.32148c0.06976,-1.22941 -0.99306,-2.21676 -2.21376,-2.05455c-1.78387,0.23708 -4.44347,0.91759 -7.21454,2.79647" fill="#ffcbbe"></path></g><path d="M26.75154,26.80606c-1.25561,-0.04114 -2.51123,-0.04114 -3.76691,0c-1.83672,0.06024 -3.29794,1.5492 -3.34384,3.38636c-0.01157,0.46355 -0.01157,0.92711 0,1.39066c0.04589,1.83716 1.50712,3.32612 3.34384,3.38636c1.25561,0.04114 2.51123,0.04114 3.76691,0c1.83672,-0.06024 3.29794,-1.5492 3.34384,-3.38636c0.01157,-0.46355 0.01157,-0.92711 0,-1.39066c-0.04582,-1.83716 -1.50704,-3.32612 -3.34384,-3.38636z" fill="#ffddce"></path></g><path d="M13.27444,10.62436c0,-2.99689 2.42946,-5.42635 5.42635,-5.42635c2.99689,0 5.42635,2.42946 5.42635,5.42635c0,2.99689 -2.42946,5.42635 -5.42635,5.42635c-2.99689,0 -5.42635,-2.42946 -5.42635,-5.42635z" fill="#ffd064"></path></g><g fill="#000000"><path d="M38.88276,18.11595c-0.54956,-0.50952 -1.29119,-0.74536 -2.03545,-0.64618c-0.12963,0.0172 -0.26468,0.03711 -0.40375,0.05929c-2.42002,-2.91615 -5.9448,-4.71115 -9.72277,-4.93864c-0.15218,-0.00915 -0.29915,0.04465 -0.40939,0.1483c-0.11016,0.10372 -0.1726,0.24836 -0.1726,0.39965v2.49673c0,0.27039 -0.21966,0.49042 -0.48968,0.49042h-1.56201c-0.27002,0 -0.48968,-0.22003 -0.48968,-0.49042v-1.59217c0.67897,-0.96956 1.07892,-2.14803 1.07892,-3.41886c0,-3.29465 -2.68068,-5.97503 -5.97576,-5.97503c-3.29465,0 -5.97503,2.68038 -5.97503,5.97503c0,0.29893 0.02203,0.59641 0.06544,0.88414c0.04516,0.29981 0.32448,0.50593 0.62473,0.46092c0.29981,-0.04524 0.50615,-0.32492 0.46092,-0.62473c-0.03521,-0.23364 -0.05314,-0.476 -0.05314,-0.72033c0,-2.68924 2.18784,-4.87708 4.87708,-4.87708c2.68961,0 4.87782,2.18784 4.87782,4.87708c0,2.68968 -2.18821,4.87782 -4.87782,4.87782c-1.71068,0 -3.26647,-0.87206 -4.16159,-2.3327c-0.15847,-0.25846 -0.49635,-0.33971 -0.75488,-0.18123c-0.25846,0.1584 -0.33963,0.49642 -0.18123,0.75488c0.44826,0.73138 1.03185,1.34213 1.70841,1.80876c-0.7376,0.58769 -1.41284,1.24983 -2.01678,1.9777c-0.13973,-0.02232 -0.27537,-0.04231 -0.40558,-0.05958c-0.74397,-0.09896 -1.48596,0.13666 -2.03545,0.64618c-0.55022,0.51011 -0.84132,1.23314 -0.79879,1.9837c0.06507,1.14721 0.22523,2.18243 0.43032,3.09387c-0.2373,1.03017 -0.35632,2.09042 -0.35134,3.15411c0.00505,1.15036 0.03082,2.32458 0.07656,3.4903c0.0964,2.43715 1.10205,4.72974 2.83168,6.45542c0.31145,0.31079 0.64157,0.59772 0.98735,0.8605v2.82985c0,1.18095 0.96041,2.14173 2.141,2.14173h3.87063c0.87733,0 1.65636,-0.52526 1.98436,-1.33752l0.64237,-1.58551c0.73292,0.01178 1.46657,0.01918 2.20051,0.01918c0.7338,0 1.46744,-0.00739 2.20051,-0.01918l0.64215,1.585c0.32821,0.81285 1.10724,1.33811 1.98458,1.33811h3.87063c1.18059,0 2.141,-0.96078 2.141,-2.14173v-2.82722c0.47073,-0.35888 0.91261,-0.76322 1.31937,-1.21162c0.20371,-0.22449 0.18687,-0.57174 -0.03777,-0.77544c-0.22457,-0.20378 -0.57181,-0.18687 -0.77544,0.03777c-1.56238,1.72217 -3.70169,2.72079 -6.02415,2.81184c-3.53056,0.13937 -7.11104,0.13937 -10.64212,0c-2.16215,-0.08491 -4.19702,-0.97381 -5.72968,-2.50296c-1.5331,-1.52966 -2.42456,-3.56167 -2.50998,-5.72141c-0.04524,-1.15285 -0.07071,-2.31418 -0.07569,-3.45209c-0.00102,-0.21586 0.00461,-0.43149 0.01457,-0.64676c0.48412,1.2387 0.93604,1.93854 0.97381,1.99592c0.1054,0.16015 0.2802,0.24704 0.45865,0.24704c0.10328,0 0.20788,-0.02913 0.30069,-0.09003c0.25326,-0.16608 0.32404,-0.50623 0.1584,-0.75971c-0.01735,-0.02657 -1.74054,-2.71047 -1.98685,-7.05146c-0.02394,-0.42264 0.13966,-0.82954 0.44906,-1.11639c0.30882,-0.28627 0.72582,-0.41861 1.14428,-0.36291c1.69479,0.22523 4.28134,0.87763 6.97885,2.70666c0.25084,0.17018 0.59223,0.1046 0.76249,-0.14632c0.17011,-0.25092 0.10467,-0.59231 -0.14632,-0.76249c-2.10564,-1.42777 -4.15097,-2.18272 -5.80705,-2.57945c0.55505,-0.60812 1.16836,-1.15914 1.83065,-1.64831c0.72538,0.30691 1.51685,0.47146 2.33782,0.47146c1.44153,0 2.76551,-0.51311 3.79883,-1.36621v0.40148c0,0.8758 0.7122,1.58836 1.58763,1.58836h1.56201c0.87543,0 1.58763,-0.71257 1.58763,-1.58836v-1.90004c3.05449,0.3277 5.89195,1.77033 7.96693,4.04169c-1.656,0.39673 -3.70118,1.15175 -5.80668,2.57937c-0.25099,0.17018 -0.31643,0.5115 -0.14632,0.76249c0.17026,0.25092 0.51164,0.3165 0.76249,0.14632c2.69751,-1.82903 5.28398,-2.48144 6.97885,-2.70666c0.41846,-0.05563 0.83561,0.07671 1.14428,0.36291c0.3094,0.28678 0.473,0.69376 0.44906,1.11632c-0.24623,4.34107 -1.96943,7.02496 -1.98685,7.05153c-0.16601,0.25319 -0.09567,0.59311 0.1573,0.75956c0.09303,0.06119 0.1977,0.09047 0.30128,0.09047c0.17845,0 0.35361,-0.08696 0.45909,-0.24726c0.03777,-0.05731 0.48961,-0.75714 0.97381,-1.99585c0.00995,0.21534 0.01559,0.43098 0.01457,0.64698c-0.00498,1.13762 -0.03045,2.29903 -0.07569,3.45187c-0.05182,1.31973 -0.39629,2.57601 -1.02395,3.73368c-0.14449,0.26658 -0.04553,0.59977 0.22105,0.74426c0.08315,0.04509 0.17274,0.06646 0.26109,0.06646c0.19492,0 0.3837,-0.10401 0.48317,-0.28744c0.70847,-1.30685 1.09729,-2.72467 1.15577,-4.21392c0.04575,-1.16551 0.07151,-2.33973 0.07656,-3.48986c0.00498,-1.06398 -0.11404,-2.12416 -0.35134,-3.15433c0.2051,-0.91137 0.36525,-1.94666 0.43032,-3.09387c0.0426,-0.7507 -0.24858,-1.47367 -0.79872,-1.98385zM30.23225,39.11611c1.56414,-0.06134 3.05449,-0.48793 4.37679,-1.23512v2.10264c0,0.57554 -0.46795,1.04378 -1.04305,1.04378h-3.87063c-0.42739,0 -0.8067,-0.25568 -0.96678,-0.65189l-0.48507,-1.19728c0.66419,-0.0164 1.32757,-0.03601 1.98875,-0.06214zM21.49273,39.17825l-0.48529,1.19786c-0.15986,0.39563 -0.53917,0.6513 -0.96656,0.6513h-3.87063c-0.57511,0 -1.04305,-0.46824 -1.04305,-1.04378v-2.10769c1.32778,0.74946 2.8229,1.17912 4.37664,1.24017c0.6614,0.02613 1.32478,0.04575 1.9889,0.06214z"></path><path d="M35.88566,24.10555c0.09303,0.06119 0.1977,0.09047 0.30128,0.09047c0.17845,0 0.35361,-0.08696 0.45909,-0.24726c0.02701,-0.04106 0.6625,-1.02351 0.75246,-2.60916c0.01984,-0.35127 -0.11653,-0.68973 -0.37411,-0.92864c-0.25751,-0.23869 -0.60504,-0.34922 -0.95338,-0.30281c-0.61866,0.08227 -1.5615,0.31958 -2.53999,0.98303c-0.25099,0.17018 -0.31643,0.5115 -0.14632,0.76249c0.17026,0.25092 0.51164,0.3165 0.76249,0.14632c0.80114,-0.54319 1.56706,-0.73672 2.06846,-0.80341c0.02394,-0.00293 0.04487,0.00337 0.06229,0.01954c0.01764,0.01632 0.02591,0.03696 0.02445,0.06141c-0.07181,1.26659 -0.5642,2.05309 -0.57489,2.07c-0.16491,0.25304 -0.09435,0.59187 0.15818,0.75802z"></path><path d="M13.5206,21.1965c0.50147,0.06668 1.26732,0.26014 2.06853,0.80341c0.25084,0.17018 0.59223,0.1046 0.76249,-0.14632c0.17011,-0.25092 0.10467,-0.59231 -0.14632,-0.76249c-0.97849,-0.66345 -1.92134,-0.90076 -2.54007,-0.98303c-0.34871,-0.04641 -0.69595,0.06405 -0.95331,0.30281c-0.25765,0.23891 -0.39402,0.57737 -0.37411,0.92872c0.08996,1.58558 0.72545,2.56803 0.75246,2.60909c0.10548,0.1603 0.28056,0.24726 0.45909,0.24726c0.10357,0 0.20832,-0.02928 0.30128,-0.09047c0.25326,-0.16667 0.32346,-0.50703 0.15686,-0.76037c-0.00498,-0.00761 -0.50132,-0.79433 -0.57349,-2.06773c-0.00146,-0.02445 0.00681,-0.04516 0.02445,-0.06149c0.01727,-0.01596 0.03843,-0.02247 0.06214,-0.0194z"></path><path d="M26.76961,26.25731c-1.26176,-0.04136 -2.54116,-0.04136 -3.80293,0c-2.11948,0.06954 -3.82137,1.79192 -3.87466,3.92136c-0.01171,0.47051 -0.01171,0.94768 0,1.41818c0.05329,2.12936 1.75518,3.85182 3.87466,3.92136c0.63088,0.02071 1.26615,0.03104 1.9015,0.03104c0.63535,0 1.27055,-0.01032 1.9015,-0.03104c2.11948,-0.06954 3.82137,-1.79192 3.87466,-3.92136c0.01171,-0.47051 0.01171,-0.9476 0,-1.41818c-0.05336,-2.12936 -1.75525,-3.85182 -3.87473,-3.92136zM29.54654,31.5694c-0.03865,1.54847 -1.27428,2.80101 -2.81302,2.85144c-1.23775,0.04062 -2.49315,0.04062 -3.7309,0c-1.53866,-0.05043 -2.77429,-1.3029 -2.81302,-2.85144c-0.01127,-0.45228 -0.01127,-0.91093 0,-1.36329c0.03865,-1.54847 1.27428,-2.80101 2.81302,-2.85144c0.61888,-0.02028 1.24222,-0.03045 1.86541,-0.03045c0.6232,0 1.24654,0.01017 1.86541,0.03045c1.53866,0.05043 2.77429,1.3029 2.81302,2.85144c0.01135,0.45228 0.01135,0.911 0.00007,1.36329z"></path><path d="M23.48887,29.81151c-0.30325,0 -0.54897,0.24579 -0.54897,0.54897v1.16697c0,0.30318 0.24572,0.54897 0.54897,0.54897c0.30325,0 0.54897,-0.24579 0.54897,-0.54897v-1.16697c0,-0.30318 -0.24572,-0.54897 -0.54897,-0.54897z"></path><path d="M26.24736,29.81151c-0.30325,0 -0.54897,0.24579 -0.54897,0.54897v1.16697c0,0.30318 0.24572,0.54897 0.54897,0.54897c0.30325,0 0.54897,-0.24579 0.54897,-0.54897v-1.16697c0,-0.30318 -0.24579,-0.54897 -0.54897,-0.54897z"></path><path d="M17.26366,30.07714c0.51391,0 0.93194,-0.69405 0.93194,-1.54715c0,-0.85311 -0.4181,-1.54708 -0.93194,-1.54708c-0.51384,0 -0.93186,0.69398 -0.93186,1.54708c0,0.85311 0.41803,1.54715 0.93186,1.54715z"></path><path d="M32.47258,26.9829c-0.51391,0 -0.93194,0.69398 -0.93194,1.54708c0,0.85311 0.4181,1.54715 0.93194,1.54715c0.51384,0 0.93186,-0.69405 0.93186,-1.54715c0,-0.85311 -0.41803,-1.54708 -0.93186,-1.54708z"></path><path d="M18.65153,13.05748c-0.74221,0.00395 -1.03522,-0.02306 -1.66324,-0.36144c-0.26695,-0.1439 -0.59985,-0.04406 -0.74368,0.22288c-0.14383,0.26695 -0.04406,0.59985 0.22288,0.74368c0.64025,0.34498 1.08126,0.45309 1.63814,0.4828v0.33846c0,0.30318 0.24572,0.54897 0.54897,0.54897c0.30325,0 0.54897,-0.24579 0.54897,-0.54897v-0.37777c1.17063,-0.21037 1.88357,-1.06267 2.00105,-1.90296c0.13673,-0.97827 -0.48983,-1.81849 -1.59627,-2.14056c-0.6991,-0.20356 -1.4741,-0.4506 -1.92163,-0.73965c-0.20854,-0.13468 -0.20693,-0.35098 -0.18746,-0.46787c0.04099,-0.24557 0.24265,-0.54722 0.68614,-0.65723c0.17904,-0.04443 0.34615,-0.06566 0.5003,-0.07115c0.00417,-0.00022 0.00842,-0.00029 0.01259,-0.00066c0.67729,-0.02028 1.0959,0.26995 1.12488,0.29066c0.24111,0.17955 0.58257,0.13161 0.7649,-0.10833c0.18336,-0.2414 0.13629,-0.58579 -0.10511,-0.76922c-0.02877,-0.02181 -0.5044,-0.37433 -1.27948,-0.48097v-0.29344c0,-0.30318 -0.24572,-0.54897 -0.54897,-0.54897c-0.30325,0 -0.54897,0.24579 -0.54897,0.54897v0.32719c-0.06075,0.01178 -0.12202,0.02467 -0.18453,0.04018c-0.79067,0.19617 -1.38129,0.80158 -1.50485,1.54232c-0.10533,0.63191 0.1532,1.2338 0.67473,1.57065c0.45638,0.29484 1.09685,0.54744 2.21039,0.87162c0.57796,0.16821 0.87528,0.50879 0.81585,0.93435c-0.09054,0.64911 -0.82273,1.00301 -1.46561,1.00645z"></path></g></g></g><path d="M2,24c0,-12.15026 9.84974,-22 22,-22c12.15026,0 22,9.84974 22,22c0,12.15026 -9.84974,22 -22,22c-12.15026,0 -22,-9.84974 -22,-22z" id="base 1 1 1" fill="none" stroke-width="1"></path><g id="Capa_1 1 1" stroke-width="1" font-family="Roboto, sans-serif" font-weight="400" font-size="14" text-anchor="start"><g><g><g><g fill="#eaac9d"><g></g></g><g fill="#000000"></g><g fill="#000000"></g><g fill="#000000"></g></g></g><g fill="#000000"></g></g></g><rect x="2" y="2" width="44" height="22" fill="none" stroke-width="1"></rect><path d="M2,24v-22h44v22z" fill="none" stroke-width="1"></path><path d="M2,24v-22h44v22z" fill="none" stroke-width="1"></path><path d="M2,24v-22h44v22z" fill="none" stroke-width="1"></path><path d="M2,24v-22h44v22z" fill="none" stroke-width="1"></path></g></svg>