<svg version="1.1" xmlns="http://www.w3.org/2000/svg" xmlns:xlink="http://www.w3.org/1999/xlink" width="48" height="48"><defs><linearGradient x1="9.15031" y1="9.15031" x2="60.41647" y2="60.41646" gradientUnits="userSpaceOnUse" id="color-1"><stop offset="0.41" stop-color="#000000" stop-opacity="0.36"></stop><stop offset="1" stop-color="#000000" stop-opacity="0"></stop></linearGradient><filter id="dropshadow-base"><feColorMatrix type="matrix" values="0 0 0 0 0  0 0 0 0 0  0 0 0 0 0  0 0 0 .8 0"></feColorMatrix> <feOffset dx="0" dy="1"></feOffset> <feGaussianBlur stdDeviation="1"></feGaussianBlur> <feComposite in="SourceGraphic"></feComposite></filter><filter id="dropshadow-banner" x="-10%" y="-10%" width="120%" height="130%"><feColorMatrix type="matrix" values="0 0 0 0 0  0 0 0 0 0  0 0 0 0 0  0 0 0 .4 0"></feColorMatrix> <feOffset dx="0" dy="1"></feOffset> <feGaussianBlur stdDeviation="0.5"></feGaussianBlur> <feComposite in="SourceGraphic"></feComposite></filter></defs><g fill="none" fill-rule="nonzero" stroke="none" stroke-width="none" stroke-linecap="butt" stroke-linejoin="miter" stroke-miterlimit="10" stroke-dasharray="" stroke-dashoffset="0" font-family="none" font-weight="none" font-size="none" text-anchor="none" style="mix-blend-mode: normal"><path d="M2,24c0,-12.15026 9.84974,-22 22,-22c12.15026,0 22,9.84974 22,22c0,12.15026 -9.84974,22 -22,22c-12.15026,0 -22,-9.84974 -22,-22z" id="base 1 5" fill="#50a3b5" stroke-width="1"></path><path d="M9.29529,38.70472c-0.08958,-0.08958 -0.14498,-0.21332 -0.14498,-0.35001v-13.85972c0,-0.27337 0.22162,-0.49499 0.49499,-0.49499l4.26447,0l-2.87473,-2.87473c-1.16448,-1.16448 -1.88473,-2.7732 -1.88473,-4.55014c0,-3.55388 2.88099,-6.43487 6.43487,-6.43487c1.77609,0.00205 3.38379,0.72272 4.54797,1.88691l1.88689,1.88689v-2.28881c0.00163,-1.3662 1.10875,-2.47331 2.47496,-2.47496h11.87976c0.6831,0.00082 1.30142,0.278 1.74918,0.72576l6.53039,6.53039c0.87044,2.36685 1.34567,4.9247 1.34567,7.59354c0,12.15026 -9.84974,22 -22,22c-3.44865,0 -6.71197,-0.79351 -9.61734,-2.20791z" fill="url(#color-1)" stroke-width="1"></path><path d="M38.8497,11.62525v17.81964c-0.00164,1.3662 -1.10875,2.47331 -2.47495,2.47495h-0.49499v6.43487c0,0.27338 -0.22161,0.49499 -0.49499,0.49499h-25.73948c-0.27338,0 -0.49499,-0.22161 -0.49499,-0.49499v-13.85972c0,-0.27338 0.22161,-0.49499 0.49499,-0.49499h12.37475v-12.37475c0.00164,-1.3662 1.10875,-2.47331 2.47495,-2.47495h11.87976c1.3662,0.00164 2.47331,1.10875 2.47495,2.47495zM22.02004,16.57515c0,3.55388 -2.88099,6.43487 -6.43487,6.43487c-3.55388,0 -6.43487,-2.88099 -6.43487,-6.43487c0,-3.55388 2.88099,-6.43487 6.43487,-6.43487c3.55218,0.00409 6.43078,2.88269 6.43487,6.43487z" fill="none" stroke-width="0"></path><g stroke-width="1"><g id="Money 1"><path d="M9.64529,24.49499h25.73948v13.85972h-25.73948z" fill="#5eac24"></path><path d="M25.48497,31.42485h-1.48497c-1.09393,0 -1.48497,-0.88603 -1.48497,-1.97996v-2.96994h-8.90982c0,1.0935 -0.88646,1.97996 -1.97996,1.97996v5.93988c1.0935,0 1.97996,0.88646 1.97996,1.97996h17.81964c0,-1.0935 0.88646,-1.97996 1.97996,-1.97996v-2.96994z" fill="#7ed63e"></path><path d="M38.35471,11.62525v17.81964c0,1.0935 -0.88646,1.97996 -1.97996,1.97996h-12.37475c-1.09393,0 -1.48497,-0.88603 -1.48497,-1.97996v-17.81964c0,-1.0935 0.88646,-1.97996 1.97996,-1.97996h11.87976c1.0935,0 1.97996,0.88646 1.97996,1.97996z" fill="#c6c5ca"></path><path d="M38.35471,11.62525v17.81964c0,1.0935 -0.88646,1.97996 -1.97996,1.97996h-1.97996c1.0935,0 1.97996,-0.88646 1.97996,-1.97996v-17.81964c0,-1.0935 -0.88646,-1.97996 -1.97996,-1.97996h1.97996c1.0935,0 1.97996,0.88646 1.97996,1.97996z" fill="#898890"></path><path d="M31.42485,23.50501h4.9499v5.93988h-4.9499z" fill="#57a4ff"></path><path d="M31.42485,16.57515h4.9499v4.9499h-4.9499z" fill="#ff3051"></path><path d="M24.98998,14.59519c-0.27338,0 -0.49499,0 -0.49499,0v-2.96994c0,0 0.22161,0 0.49499,0h10.88978c0.27338,0 0.49499,0 0.49499,0v2.96994c0,0 -0.22161,0 -0.49499,0z" fill="#bdfdff"></path><path d="M36.37475,12.12024v1.97996c0,0.27338 -0.22161,0.49499 -0.49499,0.49499h-1.97996c0.27338,0 0.49499,-0.22161 0.49499,-0.49499v-1.97996c0,-0.27338 -0.22161,-0.49499 -0.49499,-0.49499h1.97996c0.27338,0 0.49499,0.22161 0.49499,0.49499z" fill="#46f8ff"></path><path d="M24.49499,23.50501h4.9499v5.93988h-4.9499z" fill="#9cdd05"></path><path d="M24.49499,16.57515h4.9499v4.9499h-4.9499z" fill="#ffde55"></path><path d="M24,31.42485h1.48497c0,1.64025 -1.32969,2.96994 -2.96994,2.96994c-1.64025,0 -2.96994,-1.32969 -2.96994,-2.96994c0,-1.64025 1.32969,-2.96994 2.96994,-2.96994v0.98998c0,1.09393 0.39104,1.97996 1.48497,1.97996z" fill="#ffcd00"></path><path d="M9.64529,16.57515c0,-3.28051 2.65938,-5.93988 5.93988,-5.93988c3.28051,0 5.93988,2.65938 5.93988,5.93988c0,3.28051 -2.65938,5.93988 -5.93988,5.93988c-3.28051,0 -5.93988,-2.65938 -5.93988,-5.93988z" fill="#ffcd00"></path><path d="M38.35471,11.62525v17.81964c0,1.0935 -0.88646,1.97996 -1.97996,1.97996h-1.97996c1.0935,0 1.97996,-0.88646 1.97996,-1.97996v-17.81964c0,-1.0935 -0.88646,-1.97996 -1.97996,-1.97996h1.97996c1.0935,0 1.97996,0.88646 1.97996,1.97996z" fill="#898890"></path><path d="M36.37475,12.12024v1.97996c0,0.27338 -0.22161,0.49499 -0.49499,0.49499h-1.97996c0.27338,0 0.49499,-0.22161 0.49499,-0.49499v-1.97996c0,-0.27338 -0.22161,-0.49499 -0.49499,-0.49499h1.97996c0.27338,0 0.49499,0.22161 0.49499,0.49499z" fill="#46f8ff"></path><path d="M34.39479,23.50501h1.97996v5.93988h-1.97996z" fill="#006df0"></path><path d="M34.39479,16.57515h1.97996v4.9499h-1.97996z" fill="#cd2a00"></path><path d="M27.46493,23.50501h1.97996v5.93988h-1.97996z" fill="#5eac24"></path><path d="M27.46493,16.57515h1.97996v4.9499h-1.97996z" fill="#ebbf00"></path><path d="M21.52505,16.57515c-0.00208,1.7919 -0.81206,3.48734 -2.20472,4.61491c-1.39266,1.12757 -3.21952,1.56706 -4.97264,1.19627c2.74575,-0.58106 4.71011,-3.00463 4.71011,-5.81118c0,-2.80656 -1.96436,-5.23012 -4.71011,-5.81118c1.75312,-0.37079 3.57998,0.0687 4.97264,1.19627c1.39266,1.12757 2.20263,2.82301 2.20472,4.61491z" fill="#ddb200"></path><path d="M36.37475,9.1503h-11.87976c-1.3662,0.00164 -2.47331,1.10875 -2.47495,2.47495v12.37475h-12.37475c-0.27338,0 -0.49499,0.22161 -0.49499,0.49499v13.85972c0,0.27338 0.22161,0.49499 0.49499,0.49499h25.73948c0.27338,0 0.49499,-0.22161 0.49499,-0.49499v-6.43487h0.49499c1.3662,-0.00164 2.47331,-1.10875 2.47495,-2.47495v-17.81964c-0.00164,-1.3662 -1.10875,-2.47331 -2.47495,-2.47495zM24,31.91984h0.94048c-0.24806,1.21361 -1.35512,2.05692 -2.59102,1.97374c-1.2359,-0.08319 -2.21997,-1.06725 -2.30316,-2.30316c-0.08319,-1.2359 0.76013,-2.34297 1.97374,-2.59102v0.44549c0,1.54981 0.74249,2.47495 1.97996,2.47495zM22.02004,27.99952c-1.76881,0.25281 -3.05532,1.8092 -2.9708,3.59398c0.08452,1.78478 1.51236,3.21262 3.29715,3.29715c1.78478,0.08452 3.34117,-1.202 3.59398,-2.9708h6.96946v2.02946c-0.97146,0.19986 -1.7306,0.959 -1.93046,1.93046h-16.92866c-0.19986,-0.97146 -0.959,-1.7306 -1.93046,-1.93046v-5.0489c0.97146,-0.19986 1.7306,-0.959 1.93046,-1.93046h7.96934zM34.88978,37.85972h-24.7495v-12.86974h11.87976v0.98998h-8.41483c-0.27338,0 -0.49499,0.22161 -0.49499,0.49499c0,0.82013 -0.66484,1.48497 -1.48497,1.48497c-0.27338,0 -0.49499,0.22161 -0.49499,0.49499v5.93988c0,0.27338 0.22161,0.49499 0.49499,0.49499c0.82013,0 1.48497,0.66484 1.48497,1.48497c0,0.27338 0.22161,0.49499 0.49499,0.49499h17.81964c0.27338,0 0.49499,-0.22161 0.49499,-0.49499c0,-0.82013 0.66484,-1.48497 1.48497,-1.48497c0.27338,0 0.49499,-0.22161 0.49499,-0.49499v-2.47495h0.98998zM37.85972,29.44489c0,0.82013 -0.66484,1.48497 -1.48497,1.48497h-12.37475c-0.2475,0 -0.98998,0 -0.98998,-1.48497v-17.81964c0,-0.82013 0.66484,-1.48497 1.48497,-1.48497h11.87976c0.82013,0 1.48497,0.66484 1.48497,1.48497z" fill="#000000"></path><path d="M35.87976,11.13026h-10.88978c-0.54675,0 -0.98998,0.44323 -0.98998,0.98998v1.97996c0,0.54675 0.44323,0.98998 0.98998,0.98998h10.88978c0.54675,0 0.98998,-0.44323 0.98998,-0.98998v-1.97996c0,-0.54675 -0.44323,-0.98998 -0.98998,-0.98998zM24.98998,14.1002v-1.97996h10.88978v1.97996z" fill="#000000"></path><path d="M29.44489,16.08016h-4.9499c-0.27338,0 -0.49499,0.22161 -0.49499,0.49499v4.9499c0,0.27338 0.22161,0.49499 0.49499,0.49499h4.9499c0.27338,0 0.49499,-0.22161 0.49499,-0.49499v-4.9499c0,-0.27338 -0.22161,-0.49499 -0.49499,-0.49499zM28.9499,21.03006h-3.95992v-3.95992h3.95992z" fill="#000000"></path><path d="M36.37475,16.08016h-4.9499c-0.27338,0 -0.49499,0.22161 -0.49499,0.49499v4.9499c0,0.27338 0.22161,0.49499 0.49499,0.49499h4.9499c0.27338,0 0.49499,-0.22161 0.49499,-0.49499v-4.9499c0,-0.27338 -0.22161,-0.49499 -0.49499,-0.49499zM35.87976,21.03006h-3.95992v-3.95992h3.95992z" fill="#000000"></path><path d="M36.37475,23.01002h-4.9499c-0.27338,0 -0.49499,0.22161 -0.49499,0.49499v5.93988c0,0.27338 0.22161,0.49499 0.49499,0.49499h4.9499c0.27338,0 0.49499,-0.22161 0.49499,-0.49499v-5.93988c0,-0.27338 -0.22161,-0.49499 -0.49499,-0.49499zM35.87976,28.9499h-3.95992v-4.9499h3.95992z" fill="#000000"></path><path d="M26.47495,20.53507h0.98998v-0.98998h0.98998v-0.98998h-0.98998v-0.98998h-0.98998v0.98998h-0.98998v0.98998h0.98998z" fill="#000000"></path><path d="M32.41483,18.55511h2.96994v0.98998h-2.96994z" fill="#000000"></path><path d="M29.44489,23.01002h-4.9499c-0.27338,0 -0.49499,0.22161 -0.49499,0.49499v5.93988c0,0.27338 0.22161,0.49499 0.49499,0.49499h4.9499c0.27338,0 0.49499,-0.22161 0.49499,-0.49499v-5.93988c0,-0.27338 -0.22161,-0.49499 -0.49499,-0.49499zM28.9499,28.9499h-3.95992v-4.9499h3.95992z" fill="#000000"></path><path d="M26.39179,28.23464l0.57815,-0.86722l0.57815,0.86722l0.82366,-0.54944l-0.80683,-1.21025l0.80683,-1.21025l-0.82366,-0.54944l-0.57815,0.86722l-0.57815,-0.86722l-0.82366,0.54944l0.80683,1.21025l-0.80683,1.21025z" fill="#000000"></path><path d="M32.41483,25.97996h2.96994v0.98998h-2.96994z" fill="#000000"></path><path d="M33.40481,24.49499h0.98998v0.98998h-0.98998z" fill="#000000"></path><path d="M33.40481,27.46493h0.98998v0.98998h-0.98998z" fill="#000000"></path><path d="M15.58517,10.14028c-3.55388,0 -6.43487,2.88099 -6.43487,6.43487c0,3.55388 2.88099,6.43487 6.43487,6.43487c3.55388,0 6.43487,-2.88099 6.43487,-6.43487c-0.00409,-3.55218 -2.88269,-6.43078 -6.43487,-6.43487zM15.58517,22.02004c-3.00713,0 -5.44489,-2.43776 -5.44489,-5.44489c0,-3.00713 2.43776,-5.44489 5.44489,-5.44489c3.00713,0 5.44489,2.43776 5.44489,5.44489c-0.00355,3.00566 -2.43923,5.44134 -5.44489,5.44489z" fill="#000000"></path><path d="M15.58517,14.1002c0.54675,0 0.98998,0.44323 0.98998,0.98998h0.98998c-0.00337,-0.9001 -0.61345,-1.68465 -1.48497,-1.90967v-1.06027h-0.98998v1.06027c-0.96438,0.24821 -1.59337,1.17525 -1.46766,2.16308c0.12571,0.98784 0.96685,1.72779 1.96265,1.72655c0.54675,0 0.98998,0.44323 0.98998,0.98998c0,0.54675 -0.44323,0.98998 -0.98998,0.98998c-0.54675,0 -0.98998,-0.44323 -0.98998,-0.98998h-0.98998c0.00337,0.9001 0.61345,1.68465 1.48497,1.90967v1.06027h0.98998v-1.06027c0.96438,-0.24821 1.59337,-1.17525 1.46766,-2.16308c-0.12571,-0.98784 -0.96685,-1.72779 -1.96265,-1.72655c-0.54675,0 -0.98998,-0.44323 -0.98998,-0.98998c0,-0.54675 0.44323,-0.98998 0.98998,-0.98998z" fill="#000000"></path></g></g><path d="M2,24c0,-12.15026 9.84974,-22 22,-22c12.15026,0 22,9.84974 22,22c0,12.15026 -9.84974,22 -22,22c-12.15026,0 -22,-9.84974 -22,-22z" id="base 1 1 1" fill="none" stroke-width="1"></path><g fill="#000000" stroke-width="1" font-family="Roboto, sans-serif" font-weight="400" font-size="14" text-anchor="start"><g id="Money 1 1"></g></g><rect x="2" y="2" width="44" height="22" fill="none" stroke-width="1"></rect><path d="M2,24v-22h44v22z" fill="none" stroke-width="1"></path><path d="M2,24v-22h44v22z" fill="none" stroke-width="1"></path><path d="M2,24v-22h44v22z" fill="none" stroke-width="1"></path><path d="M2,24v-22h44v22z" fill="none" stroke-width="1"></path></g></svg>